<?xml version="1.0" encoding="UTF-8"?>
<svg width="53px" height="30px" viewBox="0 0 53 30" version="1.1" xmlns="http://www.w3.org/2000/svg" xmlns:xlink="http://www.w3.org/1999/xlink">
    <!-- Generator: Sketch 50.2 (55047) - http://www.bohemiancoding.com/sketch -->
    <title>myaccount_icon</title>
    <desc>Created with Sketch.</desc>
    <defs></defs>
    <g id="myaccount_icon" stroke="none" stroke-width="1" fill="none" fill-rule="evenodd">
        <path d="M15,0 C6.73913043,0 0,6.73913043 0,15 C0,23.2608696 6.73913043,30 15,30 C23.2608696,30 30,23.2608696 30,15 C30,6.73913043 23.2608696,0 15,0 Z M15,28.6956522 C11.2173913,28.6956522 7.7826087,27.173913 5.30434783,24.6521739 C7.95652174,21.0869565 11.3913043,19.1304348 15,19.1304348 C18.6086957,19.1304348 22.0434783,21.0869565 24.6956522,24.6521739 C22.2173913,27.173913 18.7826087,28.6956522 15,28.6956522 Z M15,17.3913043 C12.2608696,17.3913043 10.0434783,15.173913 10.0434783,12.4347826 C10.0434783,9.69565217 12.2608696,7.47826087 15,7.47826087 C17.7391304,7.47826087 19.9565217,9.69565217 19.9565217,12.4347826 C19.9565217,15.173913 17.7391304,17.3913043 15,17.3913043 Z M25.5652174,23.6956522 C23.3478261,20.7391304 20.6086957,18.826087 17.6086957,18.1304348 C19.7826087,17.1304348 21.2608696,14.9565217 21.2608696,12.4347826 C21.2608696,8.95652174 18.4347826,6.17391304 15,6.17391304 C11.5217391,6.17391304 8.73913043,9 8.73913043,12.4347826 C8.73913043,14.9565217 10.2608696,17.1304348 12.3913043,18.1304348 C9.39130435,18.826087 6.65217391,20.7391304 4.43478261,23.6521739 C2.47826087,21.3043478 1.30434783,18.2608696 1.30434783,14.9565217 C1.30434783,7.39130435 7.43478261,1.26086957 15,1.26086957 C22.5652174,1.26086957 28.6956522,7.43478261 28.6956522,15 C28.6956522,18.3043478 27.5217391,21.3043478 25.5652174,23.6956522 Z" id="Shape" fill="#000000" fill-rule="nonzero"></path>
        <polyline id="Page-1" stroke="#000000" points="52 14 47 19 42 14"></polyline>
    </g>
</svg>