<?xml version="1.0" encoding="UTF-8"?>
<svg width="430px" height="404px" viewBox="0 0 430 404" version="1.1" xmlns="http://www.w3.org/2000/svg" xmlns:xlink="http://www.w3.org/1999/xlink">
    <!-- Generator: Sketch 50.2 (55047) - http://www.bohemiancoding.com/sketch -->
    <title>Artboard</title>
    <desc>Created with Sketch.</desc>
    <defs></defs>
    <g id="Artboard" stroke="none" stroke-width="1" fill="none" fill-rule="evenodd">
        <g id="Group-31">
            <path d="M35.7900051,144.677972 L163.790005,40.6779722" id="Path-4-Copy" stroke="#999999" stroke-width="2.5" stroke-dasharray="20,5"></path>
            <path d="M42.7900051,163.677972 L190,135" id="Path-4-Copy-2" stroke="#999999" stroke-width="2.5" stroke-dasharray="20,5"></path>
            <path d="M129,241 L199,154" id="Path-4-Copy-3" stroke="#999999" stroke-width="2.5" stroke-dasharray="20,5"></path>
            <path d="M141,260 L270,260" id="Path-4-Copy-4" stroke="#999999" stroke-width="2.5" stroke-dasharray="20,5"></path>
            <path d="M132,278 L244,361" id="Path-4-Copy-5" stroke="#999999" stroke-width="2.5" stroke-dasharray="20,5"></path>
            <path d="M220,153 L281,242" id="Path-4-Copy-6" stroke="#999999" stroke-width="2.5" stroke-dasharray="20,5"></path>
            <path d="M230,134 L319,123" id="Path-4-Copy-7" stroke="#999999" stroke-width="2.5" stroke-dasharray="20,5"></path>
            <path d="M326,140 L301,243" id="Path-4-Copy-8" stroke="#999999" stroke-width="2.5" stroke-dasharray="20,5"></path>
            <path d="M200.790005,115.677972 L181.790005,49.6779722" id="Path-4-Copy-9" stroke="#999999" stroke-width="2.5" stroke-dasharray="20,5"></path>
            <path d="M324,106 L189.790005,39.6779722" id="Path-4-Copy-10" stroke="#999999" stroke-width="2.5" stroke-dasharray="20,5"></path>
            <path d="M351,143 L399,266" id="Path-4-Copy-11" stroke="#999999" stroke-width="2.5" stroke-dasharray="20,5"></path>
            <path d="M291,285 L265,360" id="Path-4-Copy-12" stroke="#999999" stroke-width="2.5" stroke-dasharray="20,5"></path>
            <path d="M312,271 L388,285" id="Path-4-Copy-13" stroke="#999999" stroke-width="2.5" stroke-dasharray="20,5"></path>
            <path d="M276,381 L402,300" id="Path-4-Copy-14" stroke="#999999" stroke-width="2.5" stroke-dasharray="20,5"></path>
            <path d="M33.7900051,180.677972 L109.790005,245.677972" id="Path-4-Copy-15" stroke="#999999" stroke-width="2.5" stroke-dasharray="20,5"></path>
            <path d="M8.79000513,179.677972 L37.7900051,323.677972" id="Path-4-Copy-16" stroke="#999999" stroke-width="2.5" stroke-dasharray="20,5"></path>
            <path d="M104.790005,278.677972 L59.7900051,324.677972" id="Path-4-Copy-17" stroke="#999999" stroke-width="2.5" stroke-dasharray="20,5"></path>
            <path d="M200.322233,11.5605445 L180.305196,0 L160.280796,11.5605445 L159,12.2998617 L159,13.7657322 L159,36.8676755 L179.030292,48.3585101 L180.305196,49.0914454 L181.57961,48.3585101 L201.60352,36.8676755 L201.60352,13.7657322 L201.60352,12.2998617 L200.322233,11.5605445 Z M180.305196,2.9445049 L197.773405,13.0327969 L180.305196,23.1078343 L162.830115,13.0327969 L180.305196,2.9445049 Z M179.030292,45.4198962 L161.549319,35.3895321 L161.549319,15.2379847 L179.030292,25.3198948 L179.030292,45.4198962 Z M199.054201,35.3895321 L181.57961,45.4198962 L181.57961,25.3198948 L199.054201,15.2379847 L199.054201,35.3895321 Z" id="Shape-Copy-8" fill="#000000" fill-rule="nonzero"></path>
            <path d="M358.322233,110.560544 L338.305196,99 L318.280796,110.560544 L317,111.299862 L317,112.765732 L317,135.867676 L337.030292,147.35851 L338.305196,148.091445 L339.57961,147.35851 L359.60352,135.867676 L359.60352,112.765732 L359.60352,111.299862 L358.322233,110.560544 Z M338.305196,101.944505 L355.773405,112.032797 L338.305196,122.107834 L320.830115,112.032797 L338.305196,101.944505 Z M337.030292,144.419896 L319.549319,134.389532 L319.549319,114.237985 L337.030292,124.319895 L337.030292,144.419896 Z M357.054201,134.389532 L339.57961,144.419896 L339.57961,124.319895 L357.054201,114.237985 L357.054201,134.389532 Z" id="Shape-Copy-9" fill="#000000" fill-rule="nonzero"></path>
            <path d="M41.3222333,149.560544 L21.3051964,138 L1.28079581,149.560544 L0,150.299862 L0,151.765732 L0,174.867676 L20.0302916,186.35851 L21.3051964,187.091445 L22.5796103,186.35851 L42.60352,174.867676 L42.60352,151.765732 L42.60352,150.299862 L41.3222333,149.560544 Z M21.3051964,140.944505 L38.7734054,151.032797 L21.3051964,161.107834 L3.83011457,151.032797 L21.3051964,140.944505 Z M20.0302916,183.419896 L2.54931876,173.389532 L2.54931876,153.237985 L20.0302916,163.319895 L20.0302916,183.419896 Z M40.0542012,173.389532 L22.5796103,183.419896 L22.5796103,163.319895 L40.0542012,153.237985 L40.0542012,173.389532 Z" id="Shape-Copy-10" fill="#000000" fill-rule="nonzero"></path>
            <path d="M227.322233,121.560544 L207.305196,110 L187.280796,121.560544 L186,122.299862 L186,123.765732 L186,146.867676 L206.030292,158.35851 L207.305196,159.091445 L208.57961,158.35851 L228.60352,146.867676 L228.60352,123.765732 L228.60352,122.299862 L227.322233,121.560544 Z M207.305196,112.944505 L224.773405,123.032797 L207.305196,133.107834 L189.830115,123.032797 L207.305196,112.944505 Z M206.030292,155.419896 L188.549319,145.389532 L188.549319,125.237985 L206.030292,135.319895 L206.030292,155.419896 Z M226.054201,145.389532 L208.57961,155.419896 L208.57961,135.319895 L226.054201,125.237985 L226.054201,145.389532 Z" id="Shape-Copy-11" fill="#000000" fill-rule="nonzero"></path>
            <path d="M310.322233,246.560544 L290.305196,235 L270.280796,246.560544 L269,247.299862 L269,248.765732 L269,271.867676 L289.030292,283.35851 L290.305196,284.091445 L291.57961,283.35851 L311.60352,271.867676 L311.60352,248.765732 L311.60352,247.299862 L310.322233,246.560544 Z M290.305196,237.944505 L307.773405,248.032797 L290.305196,258.107834 L272.830115,248.032797 L290.305196,237.944505 Z M289.030292,280.419896 L271.549319,270.389532 L271.549319,250.237985 L289.030292,260.319895 L289.030292,280.419896 Z M309.054201,270.389532 L291.57961,280.419896 L291.57961,260.319895 L309.054201,250.237985 L309.054201,270.389532 Z" id="Shape-Copy-12" fill="#000000" fill-rule="nonzero"></path>
            <path d="M428.322233,272.560544 L408.305196,261 L388.280796,272.560544 L387,273.299862 L387,274.765732 L387,297.867676 L407.030292,309.35851 L408.305196,310.091445 L409.57961,309.35851 L429.60352,297.867676 L429.60352,274.765732 L429.60352,273.299862 L428.322233,272.560544 Z M408.305196,263.944505 L425.773405,274.032797 L408.305196,284.107834 L390.830115,274.032797 L408.305196,263.944505 Z M407.030292,306.419896 L389.549319,296.389532 L389.549319,276.237985 L407.030292,286.319895 L407.030292,306.419896 Z M427.054201,296.389532 L409.57961,306.419896 L409.57961,286.319895 L427.054201,276.237985 L427.054201,296.389532 Z" id="Shape-Copy-13" fill="#000000" fill-rule="nonzero"></path>
            <path d="M67.3222333,328.560544 L47.3051964,317 L27.2807958,328.560544 L26,329.299862 L26,330.765732 L26,353.867676 L46.0302916,365.35851 L47.3051964,366.091445 L48.5796103,365.35851 L68.60352,353.867676 L68.60352,330.765732 L68.60352,329.299862 L67.3222333,328.560544 Z M47.3051964,319.944505 L64.7734054,330.032797 L47.3051964,340.107834 L29.8301146,330.032797 L47.3051964,319.944505 Z M46.0302916,362.419896 L28.5493188,352.389532 L28.5493188,332.237985 L46.0302916,342.319895 L46.0302916,362.419896 Z M66.0542012,352.389532 L48.5796103,362.419896 L48.5796103,342.319895 L66.0542012,332.237985 L66.0542012,352.389532 Z" id="Shape-Copy-14" fill="#000000" fill-rule="nonzero"></path>
            <path d="M275.322233,365.560544 L255.305196,354 L235.280796,365.560544 L234,366.299862 L234,367.765732 L234,390.867676 L254.030292,402.35851 L255.305196,403.091445 L256.57961,402.35851 L276.60352,390.867676 L276.60352,367.765732 L276.60352,366.299862 L275.322233,365.560544 Z M255.305196,356.944505 L272.773405,367.032797 L255.305196,377.107834 L237.830115,367.032797 L255.305196,356.944505 Z M254.030292,399.419896 L236.549319,389.389532 L236.549319,369.237985 L254.030292,379.319895 L254.030292,399.419896 Z M274.054201,389.389532 L256.57961,399.419896 L256.57961,379.319895 L274.054201,369.237985 L274.054201,389.389532 Z" id="Shape-Copy-15" fill="#000000" fill-rule="nonzero"></path>
            <path d="M138.322233,246.560544 L118.305196,235 L98.2807958,246.560544 L97,247.299862 L97,248.765732 L97,271.867676 L117.030292,283.35851 L118.305196,284.091445 L119.57961,283.35851 L139.60352,271.867676 L139.60352,248.765732 L139.60352,247.299862 L138.322233,246.560544 Z M118.305196,237.944505 L135.773405,248.032797 L118.305196,258.107834 L100.830115,248.032797 L118.305196,237.944505 Z M117.030292,280.419896 L99.5493188,270.389532 L99.5493188,250.237985 L117.030292,260.319895 L117.030292,280.419896 Z M137.054201,270.389532 L119.57961,280.419896 L119.57961,260.319895 L137.054201,250.237985 L137.054201,270.389532 Z" id="Shape-Copy-16" fill="#000000" fill-rule="nonzero"></path>
        </g>
    </g>
</svg>