<?xml version="1.0" encoding="UTF-8"?>
<svg width="605px" height="581px" viewBox="0 0 605 581" version="1.1" xmlns="http://www.w3.org/2000/svg" xmlns:xlink="http://www.w3.org/1999/xlink">
    <!-- Generator: Sketch 50.2 (55047) - http://www.bohemiancoding.com/sketch -->
    <title>pie 2</title>
    <desc>Created with Sketch.</desc>
    <defs></defs>
    <g id="pie-2" stroke="none" stroke-width="1" fill="none" fill-rule="evenodd">
        <g id="Group-13" transform="translate(5.000000, 0.000000)">
            <g id="Group-10">
                <path d="M290,581 C129.837423,581 0,450.93872 0,290.5 C0,130.06128 129.837423,1.13686838e-13 290,1.13686838e-13 C450.162577,1.13686838e-13 580,130.06128 580,290.5 C580,450.93872 450.162577,581 290,581 Z M290.5,504.630178 C408.760832,504.630178 504.630178,408.760832 504.630178,290.5 C504.630178,172.239168 408.760832,76.3698225 290.5,76.3698225 C172.239168,76.3698225 76.3698225,172.239168 76.3698225,290.5 C76.3698225,408.760832 172.239168,504.630178 290.5,504.630178 Z" id="smaller" fill="#D7D7D7" opacity="0.699999988"></path>
                <g id="whole-circle-15" transform="translate(89.000000, 87.000000)">
                    <path d="M202,405 C90.4384805,405 0,314.337662 0,202.5 C0,90.6623382 90.4384805,0 202,0 C313.561519,0 404,90.6623382 404,202.5 C404,314.337662 313.561519,405 202,405 Z M202,333.106509 C273.953879,333.106509 332.284024,274.631983 332.284024,202.5 C332.284024,130.368017 273.953879,71.8934911 202,71.8934911 C130.046121,71.8934911 71.7159763,130.368017 71.7159763,202.5 C71.7159763,274.631983 130.046121,333.106509 202,333.106509 Z" id="smaller" fill="#693AFA"></path>
                    <path d="M220.334517,331.094895 C283.640487,322.280802 332.375451,267.840966 332.375451,201.998695 C332.375451,176.300034 324.95121,152.338409 312.134081,132.148703 L372.170218,92.999211 C392.316546,124.448033 404,161.856585 404,201.998695 C404,304.492766 327.832741,389.166115 229.106223,402.317617 L220.334517,331.094895 Z" id="Combined-Shape" fill="#B49CFC"></path>
                    <path d="M218.999736,331.466147 C265.754809,325.798765 304.911001,295.475604 323.08559,253.882487 L389.000147,282.776184 C387.964927,285.218919 386.886742,287.639112 385.76653,290.035787 C356.445701,350.44887 298.052758,394.129352 228.778477,402.882239 L218.999736,331.466147 Z" id="Combined-Shape" fill="#000000" transform="translate(304.000455, 328.382366) rotate(-0.250000) translate(-304.000455, -328.382366) "></path>
                    <path d="" id="Combined-Shape" fill="#000000"></path>
                    <g id="Group-8" transform="translate(314.500000, 244.000000) rotate(8.000000) translate(-314.500000, -244.000000) translate(232.000000, 73.000000)" stroke="#FFFFFF" stroke-width="3">
                        <path d="M57.4719101,235.414634 L109.382022,289.170732 L57.4719101,235.414634 Z" id="Path-2-Copy"></path>
                        <path d="M0.00902117223,270.763136 L19.4753133,341.20216 L0.00902117223,270.763136 Z" id="Path-2-Copy"></path>
                        <path d="M90.8336755,179.675888 L161.283114,200.066132 L90.8336755,179.675888 Z" id="Path-2-Copy" transform="translate(126.058395, 189.871010) rotate(-1.000000) translate(-126.058395, -189.871010) "></path>
                        <path d="M92.6966292,96.3902439 L164.073034,116.780488 L92.6966292,96.3902439 Z" id="Path-2-Copy" transform="translate(128.384831, 106.585366) rotate(-29.000000) translate(-128.384831, -106.585366) "></path>
                        <path d="M55.7408454,26.7216894 L129.023131,44.2932624 L55.7408454,26.7216894 Z" id="Path-2-Copy" transform="translate(92.381988, 35.507476) rotate(-55.000000) translate(-92.381988, -35.507476) "></path>
                    </g>
                </g>
                <path d="M196.778842,302 L196.778842,270.71875 L204.878452,270.71875 C206.955285,270.71875 208.835149,271.073239 210.5181,271.782227 C212.201051,272.491214 213.64049,273.479486 214.836459,274.74707 C216.032429,276.014655 216.956248,277.529288 217.607944,279.291016 C218.25964,281.052743 218.585483,282.986318 218.585483,285.091797 L218.585483,287.669922 C218.585483,289.775401 218.25964,291.705395 217.607944,293.459961 C216.956248,295.214527 216.043171,296.72558 214.868686,297.993164 C213.694201,299.260749 212.283408,300.245439 210.636264,300.947266 C208.989121,301.649092 207.170128,302 205.179233,302 L196.778842,302 Z M202.85892,275.617188 L202.85892,297.144531 L205.179233,297.144531 C206.310749,297.144531 207.324085,296.92969 208.219272,296.5 C209.114459,296.07031 209.873566,295.44727 210.496616,294.630859 C211.119666,293.814449 211.595898,292.822597 211.925327,291.655273 C212.254755,290.48795 212.419467,289.159513 212.419467,287.669922 L212.419467,285.048828 C212.419467,283.645175 212.258336,282.366868 211.936069,281.213867 C211.613802,280.060867 211.133989,279.069015 210.496616,278.238281 C209.859243,277.407548 209.07149,276.763023 208.133334,276.304688 C207.195179,275.846352 206.110229,275.617188 204.878452,275.617188 L202.85892,275.617188 Z M246.423503,288.658203 C246.423503,290.663421 246.158532,292.511059 245.628582,294.201172 C245.098631,295.891284 244.332363,297.345046 243.329753,298.5625 C242.327144,299.779954 241.106128,300.728838 239.666668,301.40918 C238.227207,302.089522 236.605153,302.429688 234.800457,302.429688 C232.99576,302.429688 231.391609,302.089522 229.987957,301.40918 C228.584304,300.728838 227.402675,299.776373 226.443035,298.551758 C225.483394,297.327142 224.752933,295.873381 224.251628,294.19043 C223.750324,292.507479 223.499675,290.663421 223.499675,288.658203 L223.499675,284.103516 C223.499675,282.098297 223.750324,280.250659 224.251628,278.560547 C224.752933,276.870434 225.483394,275.413092 226.443035,274.188477 C227.402675,272.963861 228.580723,272.007816 229.977214,271.320312 C231.373706,270.632809 232.974276,270.289062 234.778972,270.289062 C236.597992,270.289062 238.227207,270.632809 239.666668,271.320312 C241.106128,272.007816 242.327144,272.963861 243.329753,274.188477 C244.332363,275.413092 245.098631,276.870434 245.628582,278.560547 C246.158532,280.250659 246.423503,282.098297 246.423503,284.103516 L246.423503,288.658203 Z M240.300457,284.060547 C240.300457,282.785801 240.196616,281.611333 239.988933,280.537109 C239.78125,279.462885 239.455407,278.539066 239.011394,277.765625 C238.567381,276.992184 237.998051,276.387046 237.303386,275.950195 C236.608721,275.513344 235.767258,275.294922 234.778972,275.294922 C233.805009,275.294922 232.988611,275.513344 232.329753,275.950195 C231.670896,276.387046 231.140953,276.992184 230.73991,277.765625 C230.338866,278.539066 230.052411,279.462885 229.880535,280.537109 C229.708659,281.611333 229.622722,282.785801 229.622722,284.060547 L229.622722,288.658203 C229.622722,289.918626 229.708659,291.085932 229.880535,292.160156 C230.052411,293.23438 230.338866,294.165361 230.73991,294.953125 C231.140953,295.740889 231.670896,296.356769 232.329753,296.800781 C232.988611,297.244794 233.81217,297.466797 234.800457,297.466797 C235.77442,297.466797 236.608721,297.244794 237.303386,296.800781 C237.998051,296.356769 238.563801,295.74447 239.000652,294.963867 C239.437503,294.183264 239.763346,293.255865 239.978191,292.181641 C240.193036,291.107417 240.300457,289.932949 240.300457,288.658203 L240.300457,284.060547 Z M273.122852,270.71875 L273.144336,291.451172 C273.144336,293.198576 272.90443,294.752597 272.42461,296.113281 C271.94479,297.473965 271.250135,298.623368 270.340625,299.561523 C269.431116,300.499679 268.321101,301.212237 267.010547,301.699219 C265.699994,302.1862 264.206845,302.429688 262.531055,302.429688 C260.955526,302.429688 259.533991,302.1862 258.266407,301.699219 C256.998822,301.212237 255.913872,300.50326 255.011524,299.572266 C254.109176,298.641271 253.41094,297.491869 252.916797,296.124023 C252.422654,294.756178 252.175586,293.198576 252.175586,291.451172 L252.197071,270.71875 L258.23418,270.71875 L258.255665,291.451172 C258.269988,293.470713 258.638799,294.996089 259.36211,296.027344 C260.085421,297.058599 261.141725,297.574219 262.531055,297.574219 C264.006323,297.574219 265.134241,297.058599 265.914844,296.027344 C266.695447,294.996089 267.092904,293.470713 267.107227,291.451172 L267.128711,270.71875 L273.122852,270.71875 Z M279.927669,302 L279.927669,270.71875 L290.433529,270.71875 C292.137964,270.71875 293.688405,270.890623 295.084896,271.234375 C296.481387,271.578127 297.673758,272.100908 298.662044,272.802734 C299.650331,273.504561 300.413018,274.392573 300.95013,275.466797 C301.487242,276.541021 301.755794,277.808586 301.755794,279.269531 C301.741471,280.730476 301.351176,282.04101 300.584896,283.201172 C299.818616,284.361334 298.690698,285.242184 297.201107,285.84375 C298.103455,286.072918 298.884046,286.416664 299.542904,286.875 C300.201761,287.333336 300.749607,287.87402 301.186459,288.49707 C301.62331,289.12012 301.945572,289.800452 302.153255,290.538086 C302.360939,291.27572 302.464779,292.038408 302.464779,292.826172 C302.464779,294.330086 302.206969,295.654942 301.691341,296.800781 C301.175714,297.94662 300.438091,298.906246 299.478451,299.679688 C298.51881,300.453129 297.351504,301.033201 295.976498,301.419922 C294.601491,301.806643 293.054631,302 291.335873,302 L279.927669,302 Z M285.986263,288.207031 L285.986263,297.123047 L291.357357,297.123047 C293.004501,297.108724 294.261324,296.704106 295.127865,295.90918 C295.994406,295.114254 296.427669,294.072272 296.427669,292.783203 C296.441992,291.350904 296.055278,290.233728 295.267513,289.431641 C294.479749,288.629553 293.262313,288.221354 291.615169,288.207031 L285.986263,288.207031 Z M285.986263,283.845703 L290.476498,283.845703 C292.152287,283.83138 293.441337,283.480472 294.343685,282.792969 C295.246033,282.105465 295.704362,281.09571 295.718685,279.763672 C295.718685,278.302727 295.267518,277.253584 294.365169,276.616211 C293.462821,275.978838 292.159449,275.652995 290.455013,275.638672 L285.986263,275.638672 L285.986263,283.845703 Z M314.125065,297.123047 L328.777409,297.123047 L328.777409,302 L308.066471,302 L308.066471,270.71875 L314.125065,270.71875 L314.125065,297.123047 Z M354.595898,288.292969 L341.748242,288.292969 L341.748242,297.123047 L356.76582,297.123047 L356.76582,302 L335.689648,302 L335.689648,270.71875 L356.701367,270.71875 L356.701367,275.638672 L341.748242,275.638672 L341.748242,283.523438 L354.595898,283.523438 L354.595898,288.292969 Z M362.904622,302 L362.904622,270.71875 L371.004231,270.71875 C373.081064,270.71875 374.960928,271.073239 376.643879,271.782227 C378.32683,272.491214 379.766269,273.479486 380.962239,274.74707 C382.158208,276.014655 383.082027,277.529288 383.733723,279.291016 C384.385419,281.052743 384.711262,282.986318 384.711262,285.091797 L384.711262,287.669922 C384.711262,289.775401 384.385419,291.705395 383.733723,293.459961 C383.082027,295.214527 382.16895,296.72558 380.994465,297.993164 C379.81998,299.260749 378.409187,300.245439 376.762043,300.947266 C375.1149,301.649092 373.295908,302 371.305012,302 L362.904622,302 Z M368.9847,275.617188 L368.9847,297.144531 L371.305012,297.144531 C372.436528,297.144531 373.449864,296.92969 374.345051,296.5 C375.240238,296.07031 375.999345,295.44727 376.622395,294.630859 C377.245445,293.814449 377.721677,292.822597 378.051106,291.655273 C378.380535,290.48795 378.545247,289.159513 378.545247,287.669922 L378.545247,285.048828 C378.545247,283.645175 378.384115,282.366868 378.061848,281.213867 C377.739581,280.060867 377.259768,279.069015 376.622395,278.238281 C375.985022,277.407548 375.197269,276.763023 374.259114,276.304688 C373.320958,275.846352 372.236008,275.617188 371.004231,275.617188 L368.9847,275.617188 Z" id="Doubled" fill="#000000"></path>
            </g>
        </g>
    </g>
</svg>