<svg width="26px" height="22px" viewBox="0 0 26 22" version="1.1" xmlns="http://www.w3.org/2000/svg" xmlns:xlink="http://www.w3.org/1999/xlink">
    <!-- Generator: Sketch 49 (51002) - http://www.bohemiancoding.com/sketch -->
    <desc>Created with Sketch.</desc>
    <defs></defs>
    <g id="final" stroke="none" stroke-width="1" fill="none" fill-rule="evenodd">
        <g id="mobile-footer" transform="translate(-219.000000, -387.000000)" fill="#FFFFFF" fill-rule="nonzero">
            <g id="Group-2" transform="translate(127.000000, 386.000000)">
                <g id="Group" transform="translate(92.000000, 1.000000)">
                    <circle id="Oval" cx="2.66666667" cy="10.6666667" r="2.66666667"></circle>
                    <circle id="Oval" cx="23.3333333" cy="10.6666667" r="2.66666667"></circle>
                    <path d="M13.6791522,6.95141086 C13.5928262,7.23925902 13.3016263,7.39878841 13.0287389,7.30772972 C12.7558515,7.21667103 12.6046136,6.90950634 12.6909395,6.62165818 L14.5622578,0.381871656 C14.6440278,0.109214917 14.9112043,-0.0508846425 15.1751031,0.0146376797 L20.2670487,1.27889516 C20.545651,1.34806814 20.7183415,1.64237783 20.6527638,1.93625424 C20.587186,2.23013065 20.3081729,2.41228877 20.0295706,2.34311579 L15.4054982,1.19502453 L13.6791522,6.95141086 Z" id="Shape"></path>
                    <circle id="Oval" cx="22" cy="2" r="2"></circle>
                    <path d="M13.0557689,18.5551491 C13.05086,18.5550123 13.0459343,18.5549434 13.0409925,18.5549434 C11.3811702,18.5549434 10.1475182,18.245868 9.396383,17.4895497 C9.19162208,17.2833758 8.85963902,17.2833758 8.6548781,17.4895497 C8.45011717,17.6957235 8.45011717,18.0299974 8.6548781,18.2361713 C9.65324075,19.2414232 11.127685,19.6108259 13.0409925,19.6108259 C13.0459343,19.6108259 13.05086,19.6107571 13.0557689,19.6106203 C13.0606778,19.6107571 13.0656036,19.6108259 13.0705453,19.6108259 C14.984242,19.6108259 16.4581904,19.2415474 17.4574392,18.2363463 C17.6622961,18.0302691 17.6624517,17.6959952 17.4577868,17.4897247 C17.2531219,17.2834542 16.9211389,17.2832975 16.716282,17.4893747 C15.9641636,18.2459733 14.7309317,18.5549434 13.0705453,18.5549434 C13.0656036,18.5549434 13.0606778,18.5550123 13.0557689,18.5551491 Z M13,22 C6.55667792,22 1.33333333,18.5675164 1.33333333,14.3333333 C1.33333333,10.0991503 6.55667792,6.66666667 13,6.66666667 C19.4433221,6.66666667 24.6666667,10.0991503 24.6666667,14.3333333 C24.6666667,18.5675164 19.4433221,22 13,22 Z M8.95889851,10.9247527 C7.91115763,10.9361757 7.06456685,11.7886083 7.0532222,12.8435791 C7.0532222,13.886983 7.92264531,14.7336088 8.95889851,14.7336088 C9.99515171,14.7336088 10.8359754,13.886983 10.8359754,12.8435791 C10.8359754,11.8001753 9.99515171,10.9247527 8.95889851,10.9247527 Z M17.1821921,10.9247527 C16.133919,10.9356479 15.2864779,11.7880839 15.2746091,12.8435791 C15.2746091,13.8879429 16.1459389,14.7336088 17.1821921,14.7336088 C18.218873,14.7336088 19.0592689,13.8874137 19.0592689,12.8435791 C19.0592689,11.7992154 18.2193986,10.9247527 17.1821921,10.9247527 Z" id="Combined-Shape"></path>
                </g>
            </g>
        </g>
    </g>
</svg>