<?xml version="1.0" encoding="UTF-8"?>
<svg width="239px" height="236px" viewBox="0 0 239 236" version="1.1" xmlns="http://www.w3.org/2000/svg" xmlns:xlink="http://www.w3.org/1999/xlink">
    <!-- Generator: Sketch 50.2 (55047) - http://www.bohemiancoding.com/sketch -->
    <title>world</title>
    <desc>Created with Sketch.</desc>
    <defs></defs>
    <g id="world" stroke="none" stroke-width="1" fill="none" fill-rule="evenodd">
        <g id="Page-1" transform="translate(2.000000, 2.000000)">
            <path d="M63.1454961,55.8694563 C63.1643035,56.044889 63.1835484,56.2207592 63.2027932,56.3966293 C64.9125202,55.953454 66.6226846,55.5102787 68.9421223,54.9091701 C68.4894318,54.1899399 67.8836574,53.2279038 67.1895319,52.125434 C65.5467244,53.6461423 64.3461102,54.7577993 63.1454961,55.8694563 Z M160.92666,76.4782032 C159.474114,75.1644268 158.179025,76.1339002 157.355872,77.0784367 C156.917177,77.5815479 157.231655,78.9425731 157.508955,79.821049 C157.8991,81.0569526 158.562172,82.208421 159.125083,83.3878886 C159.440435,84.0493704 159.628947,84.9912821 160.159929,85.2760868 C160.914851,85.6816381 161.931327,85.5985154 162.888319,85.7315118 C162.599647,83.7623783 162.399763,82.3991657 162.181072,80.9082066 C159.021423,78.8542005 158.986432,78.7487659 160.92666,76.4782032 Z M153.052031,81.3006334 C151.253515,79.3691239 149.847769,77.8602278 148.202337,76.0932138 C148.315182,76.0363403 147.583879,76.2012733 147.553699,76.4515164 C147.314889,78.418025 146.616389,78.5059601 145.362852,77.14056 C144.353811,76.0411527 143.390695,76.32377 142.876771,77.5487363 C142.330481,78.8507006 142.068489,80.2720991 141.778067,81.3006334 L153.052031,81.3006334 Z M155.427016,109.774977 C155.380216,109.150682 155.506182,108.446326 155.259936,107.915215 C153.677925,104.509809 152.053487,101.121902 150.35382,97.7738063 C149.806655,96.6953984 148.98875,95.7543617 148.295062,94.7512017 L147.487654,95.2495006 C149.82415,100.244738 151.001583,105.83846 155.472066,109.731666 C155.748492,110.484145 156.025355,111.236624 156.351205,112.123412 C158.294056,111.786109 160.126688,111.467618 162.239681,111.100566 C162.239681,111.828546 162.441314,112.485215 162.207315,112.889016 C160.704907,115.480695 159.463179,118.347554 157.463468,120.498245 C153.892242,124.338515 150.770645,128.052788 152.888887,133.756756 C153.111952,134.357427 153.08221,135.052596 153.164001,135.704453 C153.410684,137.681461 152.819343,139.163233 151.008581,140.271827 C149.933933,140.929809 148.434587,142.042779 148.391286,143.00744 C148.287627,145.341438 148.084681,147.291322 146.292726,149.111272 C145.101297,150.321802 144.69978,152.275186 143.781715,153.797206 C141.925902,156.874059 138.792496,157.280486 135.606605,157.415669 C135.213398,157.432294 134.552951,157.061742 134.433983,156.723563 C133.377705,153.732021 132.394907,150.713791 131.433541,147.689874 C130.814645,145.742177 130.095151,143.801481 129.746995,141.799973 C129.480629,140.268765 129.261064,138.452752 129.830098,137.105289 C131.462846,133.24052 130.481797,129.761178 128.474213,126.612577 C127.307277,124.783003 126.727309,123.264919 127.330459,121.171539 C127.812891,119.496835 127.409187,118.212808 125.188598,118.378616 C124.734158,118.41274 124.023412,118.080249 123.807345,117.701384 C122.959261,116.2148 121.827316,116.342984 120.416758,116.690787 C117.994536,117.287958 115.534698,117.755633 113.068737,118.134935 C112.536443,118.216745 111.749155,117.844005 111.355511,117.422705 C109.532065,115.468446 107.617206,113.552248 106.123545,111.357371 C105.358127,110.233027 105.254467,108.56576 105.136811,107.1203 C105.032714,105.838022 105.274587,104.516809 105.449977,103.224469 C105.650735,101.74226 105.616182,100.098617 106.280566,98.840402 C107.208691,97.0821378 108.699727,95.6235528 109.927896,94.0197218 C110.36659,93.4466125 110.747987,92.8288795 111.142506,92.2233961 C111.910112,91.0448034 112.603363,89.8110873 113.450572,88.6933055 C114.156507,87.7614561 115.308134,86.6585488 113.751491,85.9156942 C110.550291,84.3884236 112.504514,82.0111139 112.739389,80.1636021 C112.989134,78.198406 114.942045,79.2278153 116.227949,79.108381 C117.019611,79.034883 118.346191,78.7636405 118.437604,78.3567767 C118.623491,77.5312368 118.24778,76.5044525 117.882128,75.6561633 C117.656439,75.1320527 117.02311,74.7838122 116.911577,74.6779401 C120.100094,72.6226215 123.206382,70.621114 126.190203,68.6979167 C126.354659,67.7625674 126.502057,66.9252154 126.649455,66.0883009 C127.358014,66.3534186 128.066573,66.6185363 129.283807,67.0743988 C128.815809,65.8717443 128.479024,65.0055181 128.153612,64.1712285 C126.574662,64.3917224 125.028079,66.1534866 124.148066,63.8361127 C123.34197,61.7142959 124.691732,60.9237551 126.459193,60.034342 C127.969911,59.2739879 129.075614,57.700781 130.346646,56.4731897 C130.732855,56.10045 131.001407,55.552715 131.446225,55.3020344 C136.823402,52.2693676 141.928964,54.4694947 147.041962,56.2023847 C147.324948,56.2981945 147.481531,56.7698066 147.977523,57.4536003 C146.442311,57.6124085 145.294183,57.7318427 143.501791,57.9177751 C144.429478,58.6348179 145.152034,59.4726074 145.410526,59.3479233 C147.170115,58.4991966 148.83173,57.447913 150.817445,56.2916322 C150.998521,56.3187565 151.801555,56.6381227 152.532421,56.5178135 C156.367825,55.8869558 160.18486,55.1449762 163.954219,54.4511202 C163.971715,54.1899399 163.865868,52.6460448 164.113864,52.5869839 C165.10366,52.3511779 166.203239,52.5773591 167.093311,52.6237329 C141.236588,30.2755337 97.7717324,28.5789553 69.0348474,50.99759 C69.6987935,51.345393 70.3714874,51.6975708 70.896346,51.9723132 C71.9241942,51.6065733 72.919676,51.253083 74.217389,50.7915332 C73.0915672,52.2540555 72.1144554,53.1325314 71.7125012,54.223189 C71.5322997,54.7114256 72.5063499,55.624463 73.0613879,56.5125636 C73.7795694,55.9486416 74.3241103,55.5212159 74.8542175,55.1051648 C73.5337606,53.0533461 73.7542013,52.1494959 75.8921254,51.7124454 C78.5291027,51.1730227 81.288547,50.6987857 83.6254801,52.6884811 C85.3360818,54.1453161 86.9596445,55.7032109 88.6221343,57.2160443 C88.5705232,57.4798496 88.5189121,57.7432174 88.4677383,58.0065851 C87.351539,58.122082 86.235777,58.2380163 85.257353,58.3395135 C85.1340112,58.9668713 85.1230767,60.3523958 84.800726,60.4289562 C83.5668708,60.7225106 82.1637488,60.8629443 80.9552617,60.5505778 C79.7432757,60.2373364 78.6874351,59.3172992 77.8310407,58.8190003 C79.0648959,58.2367038 80.6040438,57.5104738 82.2897148,56.7146831 C79.6597357,53.9532589 78.5509718,53.9851955 76.3163862,56.1923224 C75.4639283,57.0344868 74.2899945,57.5507227 73.2695818,58.2113295 C73.5438204,58.6186308 73.9160327,59.1724906 74.1762751,59.560105 C73.2542734,59.9512193 72.5164097,60.2640232 71.5008082,60.6949489 C71.3096722,60.4088317 70.8744769,59.7578496 70.2730764,58.8579368 C67.9855675,60.0859656 65.6175803,61.2203719 63.3974283,62.5936468 C61.7139442,63.6344307 61.9566913,65.2522613 63.7582686,66.0371148 C65.2427437,66.683722 66.7337796,67.3150172 68.2799257,67.978249 C68.228752,68.4096121 68.0852906,68.8278507 68.1552718,69.2062778 C68.2738024,69.8454477 68.527484,70.4592434 68.724306,71.0835388 C69.1704359,70.5913648 69.6436834,70.1206277 70.0543853,69.6004545 C70.3881079,69.1782786 70.5989261,68.3453014 70.9462076,68.2976152 C73.849988,67.9016886 74.0905482,65.7601849 74.5095603,63.4874347 C74.9893686,60.8865686 77.7929885,60.0728409 79.6295563,61.9514144 C80.2292073,62.56521 80.3678575,63.6300558 80.8323573,64.7701495 C81.8265271,64.2766631 82.8005772,63.7941138 83.8900963,63.2538161 C84.7416794,65.2649484 84.3860877,67.8369404 86.8398018,68.9477224 C87.0615546,69.0483446 86.9955099,70.0335676 86.8826653,70.5703653 C86.6578508,71.6417734 85.88106,72.6659328 87.2876812,73.6187817 C87.6244655,73.8467129 87.4014005,74.9014965 87.4477631,75.8062217 C85.8771236,75.4247321 84.6677618,75.1307402 83.2541426,74.7873121 C84.0864809,73.6034696 84.6891936,72.7468681 85.2289232,71.9790767 C82.8823677,72.3439417 80.6622157,72.6886822 78.6161418,73.006736 C78.6668781,73.9530225 78.732048,75.1709891 78.8011544,76.4655161 L81.3419076,76.4655161 C79.9720266,77.6112971 77.7085737,79.1591296 77.0166351,78.634144 C75.3139062,77.3426795 74.3096767,78.4377119 73.3833012,79.05457 C71.5462959,80.2777864 69.8623745,81.7766203 68.2956715,83.3423898 C67.4970116,84.1412429 67.1466684,85.3705842 66.4866587,86.3313078 C65.9976654,87.0422258 65.4539993,87.8633908 64.729257,88.238318 C61.6968863,89.8067124 59.9495444,91.9132171 61.0670559,95.5277429 C61.0928615,95.6113031 60.8929778,95.7639864 60.4485975,96.3309709 C59.9259258,95.5570546 59.5318444,94.9113223 59.0734679,94.3141512 C58.6610165,93.7764785 58.1610886,92.8415666 57.7285176,92.8577537 C54.8081167,92.9658132 51.77006,92.8520664 49.0154269,93.6535444 C46.462427,94.396399 45.0448713,99.7744389 46.429186,102.286495 C46.9103064,103.159721 48.0566851,104.116945 48.9576924,104.178193 C49.8197727,104.236379 50.7811388,103.215282 51.6537163,102.603674 C52.3915801,102.086563 53.0642739,101.47583 53.7658349,100.90622 C54.0042082,101.079903 54.2421441,101.253586 54.4805174,101.426831 C54.118365,103.11816 53.7562125,104.808613 53.3835629,106.548065 C54.7849354,106.809683 56.0236018,107.041552 56.96791,107.218297 C57.2767018,109.394362 56.9434166,111.759422 57.9695152,112.890766 C58.9077,113.925426 61.3163638,113.625309 63.0772645,113.913176 C62.9841021,113.67387 62.8909397,113.434127 62.7982146,113.194383 C64.2581964,112.395967 65.7002455,110.983319 67.1820964,110.939132 C69.5509584,110.869572 71.9657455,111.628614 74.3184243,112.209598 C75.1083365,112.404717 75.7941518,113.091136 76.482154,113.613497 C77.8962107,114.687967 79.1606826,116.476418 80.7024548,116.748098 C83.2265875,117.193023 84.4945585,118.428927 85.2289232,120.614617 C85.7546566,122.179074 86.6547891,123.142423 88.3330246,123.753593 C91.2048761,124.799627 93.9555728,126.204401 96.6953348,127.582051 C98.9386681,128.711207 99.5601882,130.400786 98.135197,132.353295 C96.3244347,134.833852 95.7860172,137.453092 95.8056994,140.437635 C95.8253816,143.382805 94.9650509,145.953922 91.4773652,146.710776 C90.7447501,146.870021 89.8835445,147.714373 89.6040573,148.443228 C88.7699694,150.617106 88.0758439,152.863169 87.557546,155.133732 C87.1136031,157.077929 86.0879418,157.943717 83.8774122,157.59679 C85.0784637,159.645108 85.6855502,161.237565 82.7358447,162.037293 C81.8645793,162.273536 81.0361775,163.776745 80.76675,164.845091 C80.4282162,166.186429 80.6849595,167.677825 80.6849595,169.104036 C81.0869138,170.079197 81.6996862,171.214041 81.4302588,172.070642 C80.7496921,174.230521 81.9581791,175.301929 83.3512414,176.379024 C83.8249263,176.745202 84.3952727,176.986257 84.9214435,177.284624 C84.3016729,177.926857 83.7072705,178.191974 83.1741016,178.099664 C78.8615132,177.355497 74.262002,172.611377 74.8454698,166.915721 C74.8852716,166.524607 75.0256713,165.893312 74.8463446,165.76994 C72.6095721,164.225608 72.8387603,161.670678 72.5448395,159.534861 C71.8292822,154.336629 71.5231147,149.081086 71.0774222,143.846542 C70.9094675,141.873034 69.7687747,140.703628 68.276864,139.479537 C66.5024045,138.024014 65.0446096,136.137566 63.6362389,134.294867 C62.6980541,133.067713 62.2025001,131.508943 61.3045544,130.24329 C59.379198,127.531302 59.2409852,123.934713 61.196521,121.12779 C62.735669,118.918039 62.8891901,116.734536 61.3023675,114.505535 C61.1755267,114.327477 60.9371534,114.229042 60.6760362,114.03961 C60.2369045,114.514722 59.8318886,114.95221 59.429497,115.387073 C58.6391473,114.931648 57.8689173,114.686655 57.3803614,114.173044 C55.0709834,111.74586 53.0913916,108.941562 49.6321358,107.934902 C48.6178465,107.639598 47.6123048,107.286545 46.6439406,106.864369 C44.4920202,105.92552 42.2583093,105.097793 40.2870278,103.859702 C39.5885284,103.420901 39.5749696,101.91463 39.2123797,100.908845 C38.9805672,100.264863 38.6827099,99.6449424 38.2029016,98.5166609 C37.8661173,99.5416953 37.6649215,99.9822457 37.5778825,100.444233 C34.4746558,116.921343 35.8003612,133.058525 42.8789547,148.255108 C57.0781303,178.738834 81.2019453,195.102198 114.855444,196.891524 C126.415455,197.506194 137.724409,195.516061 148.301185,190.731693 C178.072917,177.2645 194.752487,154.161634 197.823785,121.604215 C198.405065,115.450509 197.392963,109.139744 197.026437,102.906853 C196.910968,100.938157 195.763714,99.9791833 193.889094,101.058466 C192.597067,101.802196 191.495739,102.910353 190.39616,103.948074 C188.308535,105.918083 186.305762,107.861842 186.631174,111.22875 C186.733522,112.289658 185.630444,113.467376 185.078905,114.59172 C184.730311,114.539659 184.382155,114.488035 184.033999,114.435974 C182.626503,110.269338 181.219882,106.102703 179.817197,101.951379 C179.191303,101.693699 178.021743,101.590889 177.713826,101.021717 C176.151934,98.1325464 173.973333,96.8192075 170.667599,97.4824393 C170.054389,97.6053734 169.317837,97.4833143 168.724747,97.2518831 C167.766443,96.8787058 166.826946,95.8414218 165.972738,95.9346068 C163.707973,96.182225 162.436066,95.1536907 161.297123,93.4522999 C161.012387,93.0266241 160.210665,92.9474387 159.646442,92.7090078 C159.470177,92.9277518 159.293475,93.1464958 159.116335,93.3652398 C160.379495,95.0683805 161.643092,96.7710838 163.017347,98.6242829 C164.046944,98.1443586 164.986441,97.7059956 165.602276,97.4190035 C166.268846,97.8954279 166.806826,98.4326632 167.455901,98.7170304 C169.888184,99.7836261 169.37426,101.490704 168.057739,102.808856 C166.239979,104.629243 164.228458,106.384007 161.998684,107.626036 C160.016467,108.729818 157.623987,109.096433 155.427016,109.774977 Z" id="Fill-3" fill="#333333"></path>
            <path d="M195,93 C196.712717,93.3230666 198.38011,93.6565116 200,94" id="Stroke-5" stroke="#555555" stroke-width="3" stroke-linecap="round" stroke-linejoin="round"></path>
            <path d="M202,95 C204.455064,95.959168 206.790829,96.9605162 209,98" id="Stroke-7" stroke="#555555" stroke-width="3" stroke-linecap="round" stroke-linejoin="round" stroke-dasharray="13.043,8.151999999999999"></path>
            <path d="M211.479571,98.2491311 C226.247917,103.655476 235,110.37762 235,117.662308 C235,135.521837 182.393453,150 117.500219,150 C52.6065472,150 0,135.521837 0,117.662308 C0,108.835756 12.8496862,100.834907 33.6806663,95" id="Stroke-9" stroke="#999999" stroke-width="3" stroke-linecap="round" stroke-linejoin="round" stroke-dasharray="24.455,4.891,13.043,8.151999999999999"></path>
            <path d="M35,94 C36.621551,93.6563997 38.288798,93.3227242 40,93" id="Stroke-11" stroke="#555555" stroke-width="3" stroke-linecap="round" stroke-linejoin="round"></path>
            <path d="M146,193 C145.676949,194.712268 145.34339,196.379523 145,198" id="Stroke-13" stroke="#555555" stroke-width="3" stroke-linecap="round" stroke-linejoin="round"></path>
            <path d="M145,200 C144.041147,202.45428 143.039587,204.7908 142,207" id="Stroke-15" stroke="#555555" stroke-width="3" stroke-linecap="round" stroke-linejoin="round" stroke-dasharray="12.881,8.050000000000001"></path>
            <path d="M140.809748,208.779622 C135.501772,223.359483 128.901728,232 121.749367,232 C104.214911,232 90,180.065067 90,116 C90,51.9349335 104.214911,0 121.749367,0 C130.415504,0 138.270735,12.685498 144,33.2506192" id="Stroke-17" stroke="#999999" stroke-width="3" stroke-linecap="round" stroke-linejoin="round" stroke-dasharray="24.151,4.83,12.881,8.050000000000001"></path>
            <path d="M145,35 C145.343382,36.6217169 145.677062,38.2888243 146,40" id="Stroke-19" stroke="#555555" stroke-width="3" stroke-linecap="round" stroke-linejoin="round"></path>
            <path d="M191,152 C192.048325,153.353678 193.048659,154.687793 194,156" id="Stroke-21" stroke="#555555" stroke-width="3" stroke-linecap="round" stroke-linejoin="round"></path>
            <path d="M194,158 C195.46102,160.402078 196.795879,162.738327 198,165" id="Stroke-23" stroke="#555555" stroke-width="3" stroke-linecap="round" stroke-linejoin="round" stroke-dasharray="13.043,8.151999999999999"></path>
            <path d="M199.982821,167.565368 C206.615813,181.805481 208.044944,192.731688 202.863906,197.882339 C190.163253,210.510011 142.543703,183.639171 96.5025182,137.864135 C50.4617719,92.0895351 23.4346973,44.7452587 36.1357896,32.1175873 C42.4128163,25.8768461 57.2185406,29.2837035 76.1479392,39.8516379" id="Stroke-25" stroke="#555555" stroke-width="3" stroke-linecap="round" stroke-linejoin="round" stroke-dasharray="24.455,4.891,13.043,8.151999999999999"></path>
            <path d="M78,40 C79.3126595,40.9532849 80.6469087,41.9536151 82,43" id="Stroke-27" stroke="#555555" stroke-width="3" stroke-linecap="round" stroke-linejoin="round"></path>
            <path d="M46,155 C45.3013333,155.676839 44.6343333,156.343897 44,157" id="Stroke-29" stroke="#555555" stroke-width="3" stroke-linecap="round" stroke-linejoin="round"></path>
            <path d="M43,159 C41.904235,160.71577 40.9030904,162.384519 40,164" id="Stroke-31" stroke="#555555" stroke-width="3" stroke-linecap="round" stroke-linejoin="round" stroke-dasharray="13.043,8.151999999999999"></path>
            <path d="M38.0171703,167.565368 C31.3841874,181.805481 29.9550588,192.731688 35.1360891,197.882339 C47.8367238,210.510011 95.4566425,183.639171 141.497321,137.864135 C187.538,92.0895351 214.565035,44.7452587 201.8644,32.1175873 C195.586944,25.8768461 180.781241,29.2837035 161.85187,39.8516379" id="Stroke-33" stroke="#999999" stroke-width="3" stroke-linecap="round" stroke-linejoin="round" stroke-dasharray="24.455,4.891,13.043,8.151999999999999"></path>
            <path d="M159,42 C157.686819,42.9532849 156.353224,43.9536151 155,45" id="Stroke-35" stroke="#555555" stroke-width="3" stroke-linecap="round" stroke-linejoin="round"></path>
        </g>
    </g>
</svg>