<?xml version="1.0" encoding="UTF-8"?>
<svg width="357px" height="498px" viewBox="0 0 357 498" version="1.1" xmlns="http://www.w3.org/2000/svg" xmlns:xlink="http://www.w3.org/1999/xlink">
    <!-- Generator: Sketch 50.2 (55047) - http://www.bohemiancoding.com/sketch -->
    <title>tlds</title>
    <desc>Created with Sketch.</desc>
    <defs></defs>
    <g id="tlds" stroke="none" stroke-width="1" fill="none" fill-rule="evenodd">
        <g id="Group-4">
            <g id="Group-5" fill="#000000" opacity="0.100000001">
                <ellipse id="Oval-2" stroke="#F7F9FB" cx="235.964103" cy="243.517431" rx="120.035897" ry="120.159633"></ellipse>
                <ellipse id="Oval-2-Copy" cx="64.3538462" cy="135.693578" rx="64.3538462" ry="64.4201835"></ellipse>
                <ellipse id="Oval-2-Copy" cx="189.410256" cy="52.5412844" rx="52.4871795" ry="52.5412844"></ellipse>
                <ellipse id="Oval-2-Copy" cx="279.323077" cy="443.174312" rx="54.7692308" ry="54.8256881"></ellipse>
                <ellipse id="Oval-2-Copy-2" cx="73.4820513" cy="250.827523" rx="25.1025641" ry="25.1284404"></ellipse>
                <ellipse id="Oval-2-Copy-4" cx="83.0666667" cy="307.937615" rx="20.0820513" ry="20.1027523"></ellipse>
                <ellipse id="Oval-2-Copy-3" cx="175.261538" cy="407.537615" rx="35.6" ry="35.6366972"></ellipse>
                <ellipse id="Oval-2-Copy-4" cx="274.758974" cy="91.3761468" rx="20.0820513" ry="20.1027523"></ellipse>
                <ellipse id="Oval-2-Copy-4" cx="31.0358974" cy="289.662385" rx="17.3435897" ry="17.3614679"></ellipse>
                <ellipse id="Oval-2-Copy-4" cx="107.25641" cy="51.6275229" rx="15.974359" ry="15.9908257"></ellipse>
                <ellipse id="Oval-2-Copy-4" cx="113.646154" cy="386.977982" rx="15.974359" ry="15.9908257"></ellipse>
                <ellipse id="Oval-2-Copy-5" cx="116.384615" cy="339.462385" rx="13.2358974" ry="13.2495413"></ellipse>
                <ellipse id="Oval-2-Copy-7" cx="199.451282" cy="471.044037" rx="13.2358974" ry="13.2495413"></ellipse>
                <ellipse id="Oval-2-Copy-8" cx="141.94359" cy="360.478899" rx="10.4974359" ry="10.5082569"></ellipse>
                <ellipse id="Oval-2-Copy-9" cx="33.3179487" cy="217.018349" rx="10.4974359" ry="10.5082569"></ellipse>
                <ellipse id="Oval-2-Copy-6" cx="152.897436" cy="119.245872" rx="13.2358974" ry="13.2495413"></ellipse>
                <ellipse id="Oval-2-Copy-9" cx="75.3076923" cy="389.719266" rx="10.4974359" ry="10.5082569"></ellipse>
                <ellipse id="Oval-2-Copy-10" cx="84.8923077" cy="359.108257" rx="10.0410256" ry="10.0513761"></ellipse>
                <ellipse id="Oval-2-Copy-11" cx="263.805128" cy="47.5155963" rx="10.0410256" ry="10.0513761"></ellipse>
            </g>
            <path d="M195,254.466667 C195,253.666085 195.202582,253.05195 195.607751,252.624242 C196.01292,252.196535 196.59934,251.982684 197.367029,251.982684 C198.14538,251.982684 198.737131,252.20476 199.142301,252.648918 C199.54747,253.093076 199.750051,253.698986 199.750051,254.466667 C199.750051,255.245314 199.544804,255.862191 199.134304,256.317316 C198.723804,256.772441 198.134718,257 197.367029,257 C196.59934,257 196.01292,256.775183 195.607751,256.325541 C195.202582,255.8759 195,255.256281 195,254.466667 Z M213.74431,256.851948 C211.068061,256.851948 209.034249,256.048637 207.642813,254.441991 C206.251377,252.835346 205.555669,250.529597 205.555669,247.524675 C205.555669,244.46492 206.283364,242.112562 207.738774,240.467532 C209.194184,238.822503 211.2973,238 214.048185,238 C215.914096,238 217.59339,238.356418 219.086119,239.069264 L217.950584,242.178355 C216.361895,241.542277 215.050446,241.224242 214.016198,241.224242 C210.956105,241.224242 209.426082,243.313399 209.426082,247.491775 C209.426082,249.531612 209.807255,251.064208 210.569612,252.08961 C211.33197,253.115012 212.448834,253.627706 213.920238,253.627706 C215.594226,253.627706 217.177561,253.200004 218.670289,252.344589 L218.670289,255.716883 C217.998561,256.122657 217.281529,256.413275 216.519172,256.588745 C215.756814,256.764214 214.831869,256.851948 213.74431,256.851948 Z M240.565307,247.393074 C240.565307,250.365094 239.824285,252.684552 238.342219,254.351515 C236.860153,256.018479 234.79702,256.851948 232.152758,256.851948 C230.500094,256.851948 229.039375,256.468114 227.770556,255.700433 C226.501737,254.932752 225.526147,253.830599 224.843756,252.393939 C224.161366,250.95728 223.820176,249.290341 223.820176,247.393074 C223.820176,244.442987 224.555867,242.139979 226.027271,240.483983 C227.498675,238.827986 229.57247,238 232.248718,238 C234.807681,238 236.833497,238.847178 238.326225,240.541558 C239.818954,242.235939 240.565307,244.519755 240.565307,247.393074 Z M227.690588,247.393074 C227.690588,251.593383 229.199288,253.693506 232.216732,253.693506 C235.202188,253.693506 236.694894,251.593383 236.694894,247.393074 C236.694894,243.236631 235.191526,241.158442 232.184745,241.158442 C230.606718,241.158442 229.463198,241.69581 228.754152,242.770563 C228.045106,243.845316 227.690588,245.386137 227.690588,247.393074 Z M261.83658,256.522944 L258.062128,256.522944 L258.062128,245.303896 C258.062128,243.911104 257.806236,242.872009 257.294443,242.18658 C256.782651,241.501151 255.982987,241.158442 254.895428,241.158442 C253.445349,241.158442 252.381795,241.643718 251.704737,242.614286 C251.027678,243.584853 250.689153,245.1997 250.689153,247.458874 L250.689153,256.522944 L246.930695,256.522944 L246.930695,238.329004 L249.873488,238.329004 L250.401271,240.714286 L250.593193,240.714286 C251.08366,239.847903 251.795361,239.178935 252.728317,238.707359 C253.661272,238.235784 254.687507,238 255.807054,238 C258.525952,238 260.327861,238.954103 261.212836,240.862338 L261.468731,240.862338 C261.991186,239.963055 262.726877,239.261186 263.675825,238.75671 C264.624774,238.252234 265.712317,238 266.938487,238 C269.049631,238 270.587652,238.548335 271.552594,239.645022 C272.517536,240.741708 273,242.41413 273,244.662338 L273,256.522944 L269.241542,256.522944 L269.241542,245.303896 C269.241542,243.911104 268.982984,242.872009 268.46586,242.18658 C267.948736,241.501151 267.146407,241.158442 266.058848,241.158442 C264.598106,241.158442 263.529222,241.627268 262.852163,242.564935 C262.175104,243.502602 261.83658,244.941982 261.83658,246.883117 L261.83658,256.522944 Z" id=".com" fill="#F7F9FB"></path>
            <path d="M36,145.84796 C36,145.126078 36.1822976,144.572313 36.5468983,144.18665 C36.9114989,143.800987 37.4392025,143.608158 38.1300248,143.608158 C38.8304419,143.608158 39.3629428,143.808403 39.7275434,144.2089 C40.0921441,144.609396 40.2744417,145.155744 40.2744417,145.84796 C40.2744417,146.550065 40.0897454,147.106302 39.7203474,147.516687 C39.3509494,147.927073 38.8208471,148.132262 38.1300248,148.132262 C37.4392025,148.132262 36.9114989,147.929545 36.5468983,147.524104 C36.1822976,147.118663 36,146.559954 36,145.84796 Z M60.5672457,139.469716 C60.5672457,142.149581 59.9004202,144.241031 58.5667494,145.744129 C57.2330785,147.247226 55.3765214,147.998764 52.9970223,147.998764 C51.5098354,147.998764 50.1953738,147.652661 49.053598,146.960445 C47.9118222,146.268229 47.0339154,145.274419 46.4198511,143.978986 C45.8057868,142.683553 45.4987593,141.180478 45.4987593,139.469716 C45.4987593,136.809628 46.1607874,134.733011 47.4848635,133.239802 C48.8089396,131.746593 50.6750913,131 53.0833747,131 C55.3861157,131 57.2090917,131.763898 58.5523573,133.291718 C59.8956229,134.819538 60.5672457,136.87885 60.5672457,139.469716 Z M48.9816377,139.469716 C48.9816377,143.257126 50.3392751,145.150803 53.0545906,145.150803 C55.7411218,145.150803 57.0843672,143.257126 57.0843672,139.469716 C57.0843672,135.72186 55.7315272,133.84796 53.0258065,133.84796 C51.6057828,133.84796 50.5767608,134.332504 49.9387097,135.301607 C49.3006585,136.270709 48.9816377,137.660065 48.9816377,139.469716 Z M74.3692308,131 C75.0504583,131 75.611743,131.049443 76.0531017,131.148331 L75.7220844,134.396786 C75.2423467,134.278121 74.7434269,134.218789 74.2253102,134.218789 C72.8724498,134.218789 71.7762656,134.673667 70.9367246,135.583436 C70.0971836,136.493206 69.6774194,137.6749 69.6774194,139.128554 L69.6774194,147.702101 L66.2952854,147.702101 L66.2952854,131.296663 L68.9434243,131.296663 L69.3895782,134.189122 L69.5622829,134.189122 C70.0899944,133.210131 70.7784077,132.433872 71.6275434,131.860321 C72.4766792,131.286771 73.3905658,131 74.3692308,131 Z M94,131.296663 L94,133.210136 L91.2799007,133.729295 C91.5293644,134.075403 91.7356485,134.500616 91.8987593,135.004944 C92.0618701,135.509273 92.1434243,136.04326 92.1434243,136.606922 C92.1434243,138.297907 91.5773423,139.627931 90.4451613,140.597033 C89.3129803,141.566136 87.7538561,142.05068 85.7677419,142.05068 C85.25922,142.05068 84.7986787,142.011125 84.3861042,141.932015 C83.6569029,142.396788 83.2923077,142.940664 83.2923077,143.563659 C83.2923077,143.939433 83.462612,144.22126 83.8032258,144.409147 C84.1438396,144.597034 84.7698879,144.690977 85.6813896,144.690977 L88.4590571,144.690977 C90.2148971,144.690977 91.548548,145.076634 92.4600496,145.84796 C93.3715513,146.619287 93.8272953,147.73176 93.8272953,149.185414 C93.8272953,151.044509 93.083713,152.478363 91.5965261,153.487021 C90.1093391,154.495679 87.9601464,155 85.1488834,155 C82.9804689,155 81.3253986,154.604454 80.1836228,153.81335 C79.0418471,153.022246 78.4709677,151.894939 78.4709677,150.431397 C78.4709677,149.422739 78.7803939,148.574787 79.3992556,147.887515 C80.0181172,147.200244 80.8840308,146.723116 81.9970223,146.456119 C81.5460689,146.258343 81.1742777,145.939434 80.8816377,145.499382 C80.5889977,145.05933 80.4426799,144.597036 80.4426799,144.112485 C80.4426799,143.499379 80.6105856,142.980225 80.946402,142.555006 C81.2822184,142.129788 81.7811381,141.70952 82.4431762,141.29419 C81.6180273,140.928305 80.9488032,140.332513 80.4354839,139.506799 C79.9221645,138.681084 79.6655087,137.714468 79.6655087,136.606922 C79.6655087,134.826938 80.2100028,133.447471 81.2990074,132.46848 C82.3880121,131.489488 83.9399403,131 85.9548387,131 C86.4057922,131 86.8783267,131.032138 87.3724566,131.096415 C87.8665864,131.160693 88.2383776,131.227441 88.4878412,131.296663 L94,131.296663 Z M81.4933002,150.253399 C81.4933002,151.004948 81.8219157,151.583434 82.4791563,151.988875 C83.136397,152.394316 84.0598783,152.597033 85.2496278,152.597033 C87.0918206,152.597033 88.4638499,152.325095 89.3657568,151.781211 C90.2676637,151.237327 90.7186104,150.515456 90.7186104,149.615575 C90.7186104,148.903581 90.4715492,148.396788 89.9774194,148.095179 C89.4832895,147.793571 88.5646056,147.642769 87.22134,147.642769 L84.6595533,147.642769 C83.6904832,147.642769 82.9205157,147.877624 82.3496278,148.347342 C81.7787399,148.81706 81.4933002,149.452406 81.4933002,150.253399 Z M82.9468983,136.606922 C82.9468983,137.635357 83.2035541,138.42645 83.7168734,138.980222 C84.2301928,139.533995 84.9665792,139.810878 85.9260546,139.810878 C87.8833845,139.810878 88.8620347,138.733014 88.8620347,136.577256 C88.8620347,135.509265 88.6197708,134.686035 88.1352357,134.10754 C87.6507006,133.529045 86.9143143,133.239802 85.9260546,133.239802 C84.9473896,133.239802 84.206206,133.526573 83.7024814,134.100124 C83.1987568,134.673674 82.9468983,135.509265 82.9468983,136.606922 Z" id=".org" fill="#F7F9FB"></path>
            <path d="M161,61.9596215 C161,61.3148233 161.158224,60.820191 161.474676,60.4757098 C161.791129,60.1312286 162.249145,59.9589905 162.848739,59.9589905 C163.456661,59.9589905 163.918842,60.1378531 164.235294,60.4955836 C164.551747,60.8533141 164.70997,61.3413218 164.70997,61.9596215 C164.70997,62.5867539 164.549665,63.0835944 164.229048,63.4501577 C163.908432,63.8167211 163.448334,64 162.848739,64 C162.249145,64 161.791129,63.8189293 161.474676,63.4567823 C161.158224,63.0946354 161,62.5955868 161,61.9596215 Z M176.102203,63.8807571 C173.953657,63.8807571 172.27357,63.216095 171.06189,61.8867508 C169.85021,60.5574066 169.244379,58.7268255 169.244379,56.3949527 C169.244379,54.0012499 169.80649,52.1198807 170.930729,50.7507886 C172.054968,49.3816966 173.599733,48.6971609 175.565069,48.6971609 C177.388835,48.6971609 178.829505,49.2845367 179.887122,50.459306 C180.94474,51.6340753 181.473541,53.2504629 181.473541,55.3085174 L181.473541,56.9911672 L172.267318,56.9911672 C172.308956,58.4132563 172.671206,59.5063053 173.354077,60.270347 C174.036948,61.0343887 174.998783,61.4164038 176.239609,61.4164038 C177.055724,61.4164038 177.815615,61.3347011 178.519305,61.1712934 C179.222995,61.0078856 179.978723,60.7362795 180.786509,60.3564669 L180.786509,62.8870662 C180.070327,63.2492132 179.345828,63.505362 178.612991,63.6555205 C177.880154,63.805679 177.043233,63.8807571 176.102203,63.8807571 Z M175.565069,51.0555205 C174.632367,51.0555205 173.884968,51.369082 173.322848,51.9962145 C172.760729,52.623347 172.425544,53.5375334 172.317284,54.7388013 L178.588008,54.7388013 C178.571353,53.5287006 178.296543,52.612306 177.76357,51.9895899 C177.230598,51.3668739 176.497771,51.0555205 175.565069,51.0555205 Z M191.067,63.8807571 C189.343166,63.8807571 187.998264,63.2183032 187.032251,61.8933754 C186.066238,60.5684476 185.583239,58.7091602 185.583239,56.3154574 C185.583239,53.9129217 186.072484,52.0425934 187.050988,50.7044164 C188.029492,49.3662394 189.384805,48.6971609 191.116966,48.6971609 C192.932404,48.6971609 194.314781,49.4081948 195.264138,50.8302839 L195.414036,50.8302839 C195.272465,49.7791746 195.201681,48.9488989 195.201681,48.3394322 L195.201681,43 L198.149671,43 L198.149671,63.6157729 L195.851238,63.6157729 L195.339087,61.6946372 L195.201681,61.6946372 C194.260651,63.1520578 192.882438,63.8807571 191.067,63.8807571 Z M191.853963,61.3634069 C193.061479,61.3634069 193.940038,61.0034736 194.489666,60.2835962 C195.039294,59.5637188 195.322432,58.3955917 195.339087,56.7791798 L195.339087,56.3419558 C195.339087,54.4958898 195.05595,53.184231 194.489666,52.4069401 C193.923383,51.6296491 193.036496,51.2410095 191.82898,51.2410095 C190.796346,51.2410095 190.001063,51.6848536 189.443107,52.5725552 C188.885151,53.4602568 188.606178,54.7255438 188.606178,56.3684543 C188.606178,57.993699 188.876824,59.2324879 189.418124,60.084858 C189.959424,60.9372282 190.771363,61.3634069 191.853963,61.3634069 Z M213.689076,63.6157729 L213.276857,61.6946372 L213.126959,61.6946372 C212.718902,62.3747668 212.138054,62.9091463 211.384397,63.2977918 C210.63074,63.6864373 209.770919,63.8807571 208.804906,63.8807571 C207.131039,63.8807571 205.881903,63.4391211 205.057461,62.555836 C204.233019,61.6725508 203.820804,60.3343938 203.820804,58.5413249 L203.820804,48.9621451 L206.781285,48.9621451 L206.781285,57.9981073 C206.781285,59.1198794 206.997802,59.9611959 207.430843,60.522082 C207.863883,61.0829681 208.54258,61.3634069 209.466954,61.3634069 C210.699454,61.3634069 211.605077,60.9725591 212.183852,60.1908517 C212.762627,59.4091444 213.05201,58.0996937 213.05201,56.2624606 L213.05201,48.9621451 L216,48.9621451 L216,63.6157729 L213.689076,63.6157729 Z" id=".edu" fill="#F7F9FB"></path>
            <path d="M255,450.754635 C255,450.183145 255.148703,449.744748 255.446114,449.439431 C255.743525,449.134115 256.173982,448.981459 256.737497,448.981459 C257.308839,448.981459 257.743209,449.139986 258.04062,449.457046 C258.338031,449.774105 258.486734,450.206631 258.486734,450.754635 C258.486734,451.310468 258.336074,451.750822 258.03475,452.075711 C257.733426,452.400599 257.301012,452.563041 256.737497,452.563041 C256.173982,452.563041 255.743525,452.402556 255.446114,452.081582 C255.148703,451.760608 255,451.318297 255,450.754635 Z M274.488143,439.234858 L274.488143,440.749691 L272.269312,441.160692 C272.472804,441.434694 272.641073,441.771321 272.774125,442.170581 C272.907178,442.569841 272.973703,442.992581 272.973703,443.438813 C272.973703,444.77751 272.51194,445.830445 271.588401,446.597651 C270.664862,447.364858 269.393058,447.748455 267.772951,447.748455 C267.358141,447.748455 266.98247,447.717141 266.645926,447.654512 C266.051104,448.022458 265.753698,448.453026 265.753698,448.94623 C265.753698,449.243718 265.892618,449.466831 266.170463,449.615575 C266.448307,449.764319 266.958985,449.83869 267.702512,449.83869 L269.968302,449.83869 C271.400571,449.83869 272.488452,450.144002 273.231979,450.754635 C273.975507,451.365269 274.347265,452.245977 274.347265,453.396786 C274.347265,454.868569 273.740712,456.003704 272.527589,456.802225 C271.314465,457.600746 269.561333,458 267.268138,458 C265.499326,458 264.149257,457.686859 263.217892,457.060569 C262.286526,456.434278 261.82085,455.541827 261.82085,454.383189 C261.82085,453.584668 262.073254,452.913373 262.57807,452.369283 C263.082886,451.825193 263.789226,451.447467 264.697112,451.236094 C264.329262,451.079521 264.025985,450.827052 263.787274,450.478677 C263.548563,450.130303 263.429209,449.76432 263.429209,449.380717 C263.429209,448.895342 263.566172,448.484344 263.840103,448.147713 C264.114034,447.811082 264.521012,447.47837 265.061047,447.149567 C264.387959,446.859908 263.842062,446.38824 263.423339,445.734549 C263.004616,445.080858 262.795257,444.31562 262.795257,443.438813 C262.795257,442.029659 263.23941,440.937581 264.12773,440.162546 C265.016049,439.387512 266.281983,439 267.925569,439 C268.29342,439 268.678874,439.025443 269.081944,439.076329 C269.485014,439.127215 269.78829,439.180057 269.991782,439.234858 L274.488143,439.234858 Z M264.286217,454.242274 C264.286217,454.837251 264.554275,455.295219 265.090397,455.616193 C265.626519,455.937167 266.379818,456.097651 267.350317,456.097651 C268.853025,456.097651 269.972212,455.882367 270.707913,455.451792 C271.443613,455.021217 271.811458,454.449736 271.811458,453.73733 C271.811458,453.173668 271.609926,452.772457 271.206856,452.533684 C270.803786,452.29491 270.0544,452.175525 268.958676,452.175525 L266.868983,452.175525 C266.078496,452.175525 265.450421,452.361453 264.984738,452.733313 C264.519055,453.105173 264.286217,453.608155 264.286217,454.242274 Z M265.471942,443.438813 C265.471942,444.252991 265.6813,444.879273 266.100023,445.317676 C266.518747,445.75608 267.119429,445.975278 267.90209,445.975278 C269.498717,445.975278 270.297018,445.12197 270.297018,443.415328 C270.297018,442.569835 270.099399,441.918111 269.704156,441.460136 C269.308912,441.002161 268.70823,440.773177 267.90209,440.773177 C267.103776,440.773177 266.49918,441.000204 266.088284,441.454265 C265.677387,441.908325 265.471942,442.569835 265.471942,443.438813 Z M289.914299,445.705192 C289.914299,447.826751 289.370358,449.482483 288.282461,450.672435 C287.194563,451.862387 285.680138,452.457355 283.739141,452.457355 C282.526017,452.457355 281.453789,452.183357 280.522423,451.635352 C279.591057,451.087348 278.874934,450.300582 278.374031,449.275031 C277.873129,448.24948 277.622681,447.059545 277.622681,445.705192 C277.622681,443.599289 278.162709,441.955301 279.24278,440.773177 C280.322851,439.591053 281.845102,439 283.80958,439 C285.687964,439 287.174996,439.604753 288.270721,440.814277 C289.366445,442.023801 289.914299,443.654089 289.914299,445.705192 Z M280.463724,445.705192 C280.463724,448.703558 281.571172,450.202719 283.7861,450.202719 C285.977549,450.202719 287.073257,448.703558 287.073257,445.705192 C287.073257,442.738139 285.969722,441.254635 283.76262,441.254635 C282.604283,441.254635 281.764893,441.638233 281.244424,442.405439 C280.723955,443.172645 280.463724,444.272552 280.463724,445.705192 Z M297.063865,452.222497 L292.13313,439.234858 L295.044611,439.234858 L297.686077,446.785538 C298.140019,448.053776 298.413946,449.079312 298.507866,449.862176 L298.601784,449.862176 C298.672224,449.298514 298.946151,448.272978 299.423574,446.785538 L302.065039,439.234858 L305,439.234858 L300.045785,452.222497 L297.063865,452.222497 Z" id=".gov" fill="#F7F9FB"></path>
            <path d="M58,253.773353 C58,253.385709 58.1003085,253.088343 58.3009285,252.881245 C58.5015484,252.674148 58.7919151,252.570601 59.1720371,252.570601 C59.5574387,252.570601 59.850445,252.678131 60.051065,252.893193 C60.251685,253.108256 60.3519934,253.401639 60.3519934,253.773353 C60.3519934,254.150376 60.2503651,254.44907 60.0471054,254.669442 C59.8438457,254.889815 59.5521592,255 59.1720371,255 C58.7919151,255 58.5015484,254.891143 58.3009285,254.673425 C58.1003085,254.455707 58,254.155686 58,253.773353 Z M70.4410158,254.769008 L68.5720918,254.769008 L68.5720918,249.352643 C68.5720918,248.672939 68.4361474,248.165824 68.1642545,247.831282 C67.8923616,247.49674 67.4607712,247.329471 66.8694702,247.329471 C66.0828288,247.329471 65.5073748,247.563116 65.1430912,248.030413 C64.7788076,248.497709 64.5966685,249.28095 64.5966685,250.380159 L64.5966685,254.769008 L62.7356636,254.769008 L62.7356636,245.95945 L64.1927908,245.95945 L64.4541234,247.11441 L64.5491535,247.11441 C64.8131271,246.694905 65.1879641,246.370988 65.6736756,246.14265 C66.1593871,245.914312 66.6978853,245.800145 67.2891862,245.800145 C69.3904165,245.800145 70.4410158,246.875442 70.4410158,249.026068 L70.4410158,254.769008 Z M76.8555434,254.928313 C75.4934394,254.928313 74.4283217,254.528727 73.6601584,253.729544 C72.8919951,252.93036 72.5079192,251.82984 72.5079192,250.427951 C72.5079192,248.98889 72.8642782,247.857837 73.5770071,247.034757 C74.289736,246.211678 75.2690635,245.800145 76.5150191,245.800145 C77.6712237,245.800145 78.5845588,246.153267 79.2550519,246.859522 C79.925545,247.565777 80.2607865,248.537527 80.2607865,249.774801 L80.2607865,250.786387 L74.4243583,250.786387 C74.4507556,251.641327 74.6804093,252.298453 75.1133261,252.757784 C75.5462428,253.217115 76.1560128,253.446778 76.9426543,253.446778 C77.4600426,253.446778 77.9417873,253.397659 78.3879028,253.299421 C78.8340183,253.201182 79.3131232,253.037896 79.8252321,252.809558 L79.8252321,254.33092 C79.3711974,254.548637 78.9118902,254.70263 78.4472966,254.792904 C77.9827029,254.883177 77.4521239,254.928313 76.8555434,254.928313 Z M76.5150191,247.217958 C75.9237181,247.217958 75.4498926,247.406467 75.0935281,247.78349 C74.7371637,248.160514 74.5246681,248.71011 74.456035,249.432295 L78.4314582,249.432295 C78.4208993,248.7048 78.2466793,248.153876 77.908793,247.779508 C77.5709067,247.405139 77.1063201,247.217958 76.5150191,247.217958 Z M85.6379028,253.414917 C86.0919375,253.414917 86.5459653,253.34323 87,253.199855 L87,254.609703 C86.7941006,254.699976 86.528811,254.775645 86.2041234,254.836713 C85.8794358,254.89778 85.5428745,254.928313 85.1944293,254.928313 C83.4310853,254.928313 82.5494265,253.993734 82.5494265,252.124547 L82.5494265,247.377263 L81.3536319,247.377263 L81.3536319,246.548878 L82.6365374,245.863867 L83.270071,244 L84.4183506,244 L84.4183506,245.95945 L86.9128891,245.95945 L86.9128891,247.377263 L84.4183506,247.377263 L84.4183506,252.092686 C84.4183506,252.544052 84.5305377,252.877262 84.7549153,253.092324 C84.9792929,253.307387 85.2736192,253.414917 85.6379028,253.414917 Z" id=".net" fill="#F7F9FB"></path>
            <path d="M73,312.8 C73,312.420777 73.1024801,312.129871 73.3074434,311.927273 C73.5124066,311.724674 73.8090595,311.623377 74.197411,311.623377 C74.5911562,311.623377 74.890506,311.72857 75.0954693,311.938961 C75.3004325,312.149352 75.4029126,312.436362 75.4029126,312.8 C75.4029126,313.168833 75.2990841,313.461038 75.0914239,313.676623 C74.8837638,313.892209 74.5857625,314 74.197411,314 C73.8090595,314 73.5124066,313.893508 73.3074434,313.680519 C73.1024801,313.467531 73,313.174028 73,312.8 Z M81.4466019,313.92987 C80.0927656,313.92987 79.0639194,313.549354 78.3600324,312.788312 C77.6561453,312.027269 77.3042071,310.935072 77.3042071,309.511688 C77.3042071,308.06233 77.6723264,306.948056 78.4085761,306.168831 C79.1448257,305.389606 80.2087309,305 81.6003236,305 C82.5442334,305 83.3937395,305.168829 84.1488673,305.506494 L83.5744337,306.979221 C82.7707619,306.677921 82.1073381,306.527273 81.5841424,306.527273 C80.0361303,306.527273 79.2621359,307.516873 79.2621359,309.496104 C79.2621359,310.462342 79.4549603,311.188309 79.8406149,311.674026 C80.2262695,312.159743 80.7912584,312.402597 81.5355987,312.402597 C82.3824206,312.402597 83.1833835,312.200002 83.9385113,311.794805 L83.9385113,313.392208 C83.5987038,313.584417 83.2359782,313.722078 82.8503236,313.805195 C82.4646691,313.888312 81.9967665,313.92987 81.4466019,313.92987 Z M91.6407767,313.774026 L91.2605178,312.574026 L91.1957929,312.574026 C90.7642913,313.098704 90.3300993,313.455843 89.8932039,313.645455 C89.4563085,313.835066 88.8953648,313.92987 88.210356,313.92987 C87.3311714,313.92987 86.6448245,313.701301 86.1512945,313.244156 C85.6577645,312.787011 85.4110032,312.140264 85.4110032,311.303896 C85.4110032,310.41558 85.7535025,309.745457 86.4385113,309.293506 C87.1235201,308.841556 88.167199,308.594805 89.5695793,308.553247 L91.1148867,308.506494 L91.1148867,308.046753 C91.1148867,307.496101 90.9813929,307.084417 90.7144013,306.811688 C90.4474097,306.53896 90.033444,306.402597 89.4724919,306.402597 C89.0140214,306.402597 88.5744358,306.467532 88.1537217,306.597403 C87.7330076,306.727273 87.3284809,306.880519 86.9401294,307.057143 L86.3252427,305.748052 C86.810682,305.503895 87.3419604,305.318182 87.9190939,305.190909 C88.4962273,305.063636 89.0409899,305 89.5533981,305 C90.6914836,305 91.5504286,305.238959 92.1302589,305.716883 C92.7100892,306.194808 93,306.945449 93,307.968831 L93,313.774026 L91.6407767,313.774026 Z M88.8090615,312.527273 C89.4994641,312.527273 90.0536657,312.34156 90.4716828,311.97013 C90.8897,311.598699 91.0987055,311.077925 91.0987055,310.407792 L91.0987055,309.65974 L89.9498382,309.706494 C89.0544723,309.737662 88.4031843,309.881817 87.9959547,310.138961 C87.588725,310.396105 87.3851133,310.789608 87.3851133,311.319481 C87.3851133,311.703898 87.5037744,312.001298 87.7411003,312.211688 C87.9784262,312.422079 88.3344097,312.527273 88.8090615,312.527273 Z" id=".ca" fill="#F7F9FB"></path>
            <path d="M264,95.8340694 C264,95.4656133 264.104532,95.1829663 264.313599,94.9861199 C264.522666,94.7892735 264.825258,94.6908517 265.221385,94.6908517 C265.623014,94.6908517 265.928357,94.7930589 266.137424,94.9974763 C266.346491,95.2018938 266.451023,95.4807553 266.451023,95.8340694 C266.451023,96.1924308 266.345115,96.4763396 266.133297,96.6858044 C265.92148,96.8952692 265.617512,97 265.221385,97 C264.825258,97 264.522666,96.896531 264.313599,96.6895899 C264.104532,96.4826488 264,96.1974782 264,95.8340694 Z M272.013276,96.9318612 C270.874411,96.9318612 269.98589,96.5533161 269.347686,95.7962145 C268.709481,95.0391129 268.390384,93.976663 268.390384,92.6088328 C268.390384,91.2359553 268.713608,90.1671963 269.360065,89.4025237 C270.006522,88.6378511 270.90192,88.2555205 272.046286,88.2555205 C273.24567,88.2555205 274.158949,88.6618256 274.78615,89.4744479 L274.885181,89.4744479 C274.791651,88.873814 274.744887,88.3993708 274.744887,88.0511041 L274.744887,85 L276.692501,85 L276.692501,96.7804416 L275.174022,96.7804416 L274.835666,95.6826498 L274.744887,95.6826498 C274.123188,96.5154616 273.21266,96.9318612 272.013276,96.9318612 Z M272.53319,95.4933754 C273.330945,95.4933754 273.911372,95.2876992 274.274489,94.8763407 C274.637605,94.4649822 274.824662,93.797481 274.835666,92.873817 L274.835666,92.6239748 C274.835666,91.5690799 274.648608,90.8195606 274.274489,90.3753943 C273.900369,89.9312281 273.31444,89.7091483 272.516685,89.7091483 C271.834466,89.7091483 271.309056,89.9627735 270.940438,90.4700315 C270.57182,90.9772896 270.387513,91.7003108 270.387513,92.6391167 C270.387513,93.567828 270.566318,94.2757073 270.923933,94.762776 C271.281547,95.2498447 271.817961,95.4933754 272.53319,95.4933754 Z M283.451381,96.9318612 C282.031927,96.9318612 280.921963,96.5520543 280.121457,95.792429 C279.32095,95.0328038 278.920703,93.9867575 278.920703,92.6542587 C278.920703,91.2864285 279.292067,90.2113604 280.034804,89.4290221 C280.777542,88.6466838 281.798104,88.2555205 283.09652,88.2555205 C284.301405,88.2555205 285.253196,88.5911638 285.95192,89.2624606 C286.650643,89.9337573 287,90.8574074 287,92.0334385 L287,92.9949527 L280.917833,92.9949527 C280.945342,93.807575 281.184665,94.4321745 281.635809,94.8687697 C282.086954,95.305365 282.722398,95.5236593 283.54216,95.5236593 C284.081333,95.5236593 284.583361,95.4769721 285.04826,95.3835962 C285.513159,95.2902204 286.012436,95.1350169 286.546107,94.9179811 L286.546107,96.3640379 C286.072955,96.570979 285.594309,96.7173497 285.110154,96.8031546 C284.625999,96.8889594 284.07308,96.9318612 283.451381,96.9318612 Z M283.09652,89.6031546 C282.480322,89.6031546 281.986547,89.7823326 281.615178,90.140694 C281.243809,90.4990554 281.022366,91.0214477 280.950843,91.7078864 L285.093649,91.7078864 C285.082646,91.0164003 284.90109,90.4927463 284.548977,90.1369085 C284.196865,89.7810708 283.712717,89.6031546 283.09652,89.6031546 Z" id=".de" fill="#F7F9FB"></path>
            <path d="M24,292.727992 C24,292.39103 24.0874761,292.132543 24.2624309,291.952522 C24.4373858,291.772502 24.6906061,291.682493 25.0220994,291.682493 C25.3581969,291.682493 25.6137192,291.775963 25.788674,291.962908 C25.9636289,292.149853 26.051105,292.404878 26.051105,292.727992 C26.051105,293.055722 25.9624779,293.315363 25.785221,293.506924 C25.6079641,293.698484 25.3535928,293.794263 25.0220994,293.794263 C24.6906061,293.794263 24.4373858,293.699638 24.2624309,293.510386 C24.0874761,293.321133 24,293.060338 24,292.727992 Z M27.3494475,297 C26.8614156,297 26.4562631,296.942302 26.1339779,296.826904 L26.1339779,295.53907 C26.447055,295.622157 26.7670334,295.663699 27.0939227,295.663699 C27.7845338,295.663699 28.1298343,295.271352 28.1298343,294.486647 L28.1298343,285.935707 L29.7527624,285.935707 L29.7527624,294.597428 C29.7527624,295.38675 29.5467332,295.984502 29.1346685,296.390702 C28.7226038,296.796903 28.1275361,297 27.3494475,297 Z M28.0331492,283.907023 C28.0331492,283.61622 28.1125683,283.392352 28.2714088,283.23541 C28.4302494,283.078469 28.6569967,283 28.9516575,283 C29.2371101,283 29.4592533,283.078469 29.6180939,283.23541 C29.7769345,283.392352 29.8563536,283.61622 29.8563536,283.907023 C29.8563536,284.183978 29.7769345,284.402076 29.6180939,284.561325 C29.4592533,284.720574 29.2371101,284.800198 28.9516575,284.800198 C28.6569967,284.800198 28.4302494,284.720574 28.2714088,284.561325 C28.1125683,284.402076 28.0331492,284.183978 28.0331492,283.907023 Z M35.9475138,293.731949 C34.9806581,293.731949 34.2302052,293.383452 33.6961326,292.686449 L33.5994475,292.686449 C33.6639046,293.332677 33.6961326,293.725024 33.6961326,293.863501 L33.6961326,297 L32.0732044,297 L32.0732044,285.935707 L33.3853591,285.935707 C33.4221917,286.078801 33.4981578,286.420373 33.6132597,286.960435 L33.6961326,286.960435 C34.2025808,286.184962 34.9622417,285.79723 35.9751381,285.79723 C36.9281816,285.79723 37.6705775,286.143419 38.2023481,286.835806 C38.7341187,287.528193 39,288.499829 39,289.750742 C39,291.001655 38.7295147,291.977906 38.1885359,292.679525 C37.6475571,293.381144 36.9005573,293.731949 35.9475138,293.731949 Z M35.5538674,287.126607 C34.909297,287.126607 34.4385374,287.315857 34.1415746,287.694362 C33.8446118,288.072867 33.6961326,288.677543 33.6961326,289.508408 L33.6961326,289.750742 C33.6961326,290.683157 33.8434608,291.358224 34.1381215,291.775964 C34.4327823,292.193705 34.9139009,292.402572 35.5814917,292.402572 C36.1431888,292.402572 36.5759653,292.171779 36.8798343,291.710188 C37.1837032,291.248596 37.3356354,290.590838 37.3356354,289.736894 C37.3356354,288.878334 37.1848542,288.228654 36.8832873,287.787834 C36.5817204,287.347014 36.1385849,287.126607 35.5538674,287.126607 Z" id=".jp" fill="#F7F9FB"></path>
            <path d="M100,55.9385965 C100,55.6031729 100.087831,55.3458656 100.263497,55.1666667 C100.439162,54.9874678 100.693411,54.8978697 101.026251,54.8978697 C101.363713,54.8978697 101.620273,54.9909139 101.795939,55.177005 C101.971604,55.3630962 102.059435,55.6169575 102.059435,55.9385965 C102.059435,56.2648304 101.970448,56.5232864 101.792472,56.7139724 C101.614495,56.9046584 101.35909,57 101.026251,57 C100.693411,57 100.439162,56.9058071 100.263497,56.7174185 C100.087831,56.52903 100,56.2694252 100,55.9385965 Z M107.995047,50.4041353 L106.122833,50.4041353 L106.122833,56.8001253 L104.486379,56.8001253 L104.486379,50.4041353 L103.224368,50.4041353 L103.224368,49.64599 L104.486379,49.1497494 L104.486379,48.6535088 C104.486379,47.7529195 104.699024,47.0855285 105.124319,46.6513158 C105.549614,46.2171031 106.199104,46 107.072808,46 C107.646032,46 108.210002,46.0941929 108.764735,46.2825815 L108.334819,47.5093985 C107.932638,47.3807429 107.548953,47.316416 107.183754,47.316416 C106.813932,47.316416 106.54466,47.4301367 106.375929,47.6575815 C106.207197,47.8850262 106.122833,48.2261882 106.122833,48.6810777 L106.122833,49.1773183 L107.995047,49.1773183 L107.995047,50.4041353 Z M113.188707,49.0394737 C113.516924,49.0394737 113.787352,49.0624476 114,49.108396 L113.840515,50.6177945 C113.609376,50.5626564 113.368996,50.5350877 113.119366,50.5350877 C112.467555,50.5350877 111.939411,50.7464473 111.534918,51.1691729 C111.130426,51.5918985 110.928182,52.1409741 110.928182,52.816416 L110.928182,56.8001253 L109.298663,56.8001253 L109.298663,49.1773183 L110.574542,49.1773183 L110.7895,50.5213033 L110.872709,50.5213033 C111.126962,50.0664138 111.458641,49.705724 111.867756,49.4392231 C112.276872,49.1727221 112.717184,49.0394737 113.188707,49.0394737 Z" id=".fr" fill="#F7F9FB"></path>
            <path d="M105,390.2 C105,389.947185 105.078274,389.753247 105.234824,389.618182 C105.391374,389.483116 105.617956,389.415584 105.914577,389.415584 C106.215317,389.415584 106.443959,389.485714 106.600509,389.625974 C106.757059,389.766234 106.835333,389.957575 106.835333,390.2 C106.835333,390.445889 106.756029,390.640692 106.597419,390.784416 C106.438809,390.928139 106.211197,391 105.914577,391 C105.617956,391 105.391374,390.929005 105.234824,390.787013 C105.078274,390.645021 105,390.449352 105,390.2 Z M112.971647,390.849351 L112.681207,390.049351 L112.63177,390.049351 C112.302191,390.399136 111.970558,390.637229 111.636859,390.763636 C111.303161,390.890044 110.874715,390.953247 110.351509,390.953247 C109.679992,390.953247 109.155763,390.800867 108.778808,390.496104 C108.401852,390.19134 108.213377,389.760176 108.213377,389.202597 C108.213377,388.610387 108.474976,388.163638 108.998182,387.862338 C109.521389,387.561037 110.318545,387.396537 111.389676,387.368831 L112.569975,387.337662 L112.569975,387.031169 C112.569975,386.664067 112.468013,386.389611 112.264086,386.207792 C112.060159,386.025973 111.743974,385.935065 111.315522,385.935065 C110.965344,385.935065 110.629591,385.978355 110.308252,386.064935 C109.986912,386.151516 109.677937,386.253679 109.381316,386.371429 L108.911668,385.498701 C109.282445,385.33593 109.688232,385.212122 110.129044,385.127273 C110.569856,385.042424 110.985943,385 111.377317,385 C112.246581,385 112.902639,385.159306 113.345511,385.477922 C113.788382,385.796538 114.009815,386.296966 114.009815,386.979221 L114.009815,390.849351 L112.971647,390.849351 Z M110.808797,390.018182 C111.336123,390.018182 111.759419,389.894374 112.078699,389.646753 C112.397978,389.399133 112.557615,389.05195 112.557615,388.605195 L112.557615,388.106494 L111.680116,388.137662 C110.99624,388.158442 110.49879,388.254545 110.18775,388.425974 C109.87671,388.597403 109.721192,388.859738 109.721192,389.212987 C109.721192,389.469265 109.811825,389.667532 109.993093,389.807792 C110.174362,389.948053 110.44626,390.018182 110.808797,390.018182 Z M120.856779,390.849351 L120.652854,390.096104 L120.578699,390.096104 C120.376832,390.362772 120.089484,390.572294 119.716648,390.724675 C119.343813,390.877057 118.918456,390.953247 118.440567,390.953247 C117.6125,390.953247 116.994549,390.780088 116.586696,390.433766 C116.178842,390.087444 115.974918,389.562774 115.974918,388.85974 L115.974918,385.103896 L117.439477,385.103896 L117.439477,388.646753 C117.439477,389.086582 117.546588,389.416449 117.760814,389.636364 C117.97504,389.856278 118.310794,389.966234 118.768084,389.966234 C119.377805,389.966234 119.825819,389.812989 120.112141,389.506494 C120.398463,389.199998 120.541621,388.686584 120.541621,387.966234 L120.541621,385.103896 L122,385.103896 L122,390.849351 L120.856779,390.849351 Z" id=".au" fill="#F7F9FB"></path>
            <path d="M108,341.2 C108,340.947185 108.072499,340.753247 108.217498,340.618182 C108.362497,340.483116 108.572362,340.415584 108.847097,340.415584 C109.125649,340.415584 109.337421,340.485714 109.48242,340.625974 C109.62742,340.766234 109.699918,340.957575 109.699918,341.2 C109.699918,341.445889 109.626466,341.640692 109.479558,341.784416 C109.332651,341.928139 109.121833,342 108.847097,342 C108.572362,342 108.362497,341.929005 108.217498,341.787013 C108.072499,341.645021 108,341.449352 108,341.2 Z M114.633688,336 C114.904608,336 115.127827,336.017316 115.303352,336.051948 L115.171709,337.18961 C114.98092,337.148052 114.782503,337.127273 114.576451,337.127273 C114.038427,337.127273 113.602482,337.286578 113.268602,337.605195 C112.934722,337.923811 112.767784,338.33766 112.767784,338.846753 L112.767784,341.849351 L111.422731,341.849351 L111.422731,336.103896 L112.475879,336.103896 L112.653312,337.116883 L112.721995,337.116883 C112.931863,336.774024 113.20564,336.502166 113.543336,336.301299 C113.881032,336.100432 114.244479,336 114.633688,336 Z M120.941128,341.849351 L120.752249,341.096104 L120.683565,341.096104 C120.496592,341.362772 120.230446,341.572294 119.885119,341.724675 C119.539791,341.877057 119.145819,341.953247 118.703189,341.953247 C117.936219,341.953247 117.363861,341.780088 116.9861,341.433766 C116.608338,341.087444 116.41946,340.562774 116.41946,339.85974 L116.41946,336.103896 L117.775961,336.103896 L117.775961,339.646753 C117.775961,340.086582 117.875169,340.416449 118.07359,340.636364 C118.27201,340.856278 118.582991,340.966234 119.006541,340.966234 C119.571276,340.966234 119.986235,340.812989 120.251431,340.506494 C120.516627,340.199998 120.649223,339.686584 120.649223,338.966234 L120.649223,336.103896 L122,336.103896 L122,341.849351 L120.941128,341.849351 Z" id=".ru" fill="#F7F9FB"></path>
            <path d="M192,474.125552 C192,473.84921 192.0686,473.637225 192.205803,473.48959 C192.343005,473.341955 192.541585,473.268139 192.801547,473.268139 C193.065121,473.268139 193.265505,473.344794 193.402708,473.498107 C193.53991,473.65142 193.608511,473.860566 193.608511,474.125552 C193.608511,474.394323 193.539008,474.607255 193.4,474.764353 C193.260992,474.921452 193.06151,475 192.801547,475 C192.541585,475 192.343005,474.922398 192.205803,474.767192 C192.0686,474.611987 192,474.398109 192,474.125552 Z M197.654159,474.948896 C196.7479,474.948896 196.05919,474.671612 195.588008,474.117035 C195.116825,473.562458 194.881238,472.766567 194.881238,471.729338 C194.881238,470.673181 195.127657,469.861202 195.620503,469.293375 C196.113349,468.725549 196.825527,468.44164 197.75706,468.44164 C198.388914,468.44164 198.957573,468.564668 199.463056,468.810726 L199.07853,469.883912 C198.540552,469.664352 198.096456,469.554574 197.746228,469.554574 C196.709988,469.554574 196.191876,470.275703 196.191876,471.717981 C196.191876,472.422086 196.320953,472.951102 196.57911,473.305047 C196.837268,473.658992 197.215471,473.835962 197.713733,473.835962 C198.280596,473.835962 198.816761,473.68833 199.322244,473.39306 L199.322244,474.557098 C199.094776,474.697162 198.851968,474.797476 198.59381,474.858044 C198.335653,474.918612 198.022439,474.948896 197.654159,474.948896 Z M206,474.835331 L204.721857,474.835331 L204.721857,470.974132 C204.721857,470.489587 204.628886,470.128077 204.44294,469.88959 C204.256995,469.651103 203.961833,469.531861 203.557447,469.531861 C203.023079,469.531861 202.630433,469.699367 202.379497,470.034385 C202.128561,470.369402 202.003095,470.930595 202.003095,471.717981 L202.003095,474.835331 L200.730368,474.835331 L200.730368,466 L202.003095,466 L202.003095,468.242902 C202.003095,468.602525 201.981432,468.986749 201.938104,469.395584 L202.019342,469.395584 C202.192651,469.092743 202.433654,468.858045 202.74236,468.691483 C203.051065,468.52492 203.411217,468.44164 203.822824,468.44164 C205.274282,468.44164 206,469.208194 206,470.741325 L206,474.835331 Z" id=".ch" fill="#F7F9FB"></path>
            <path d="M136,363.110969 C136,362.830018 136.072256,362.614497 136.216771,362.4644 C136.361286,362.314303 136.570449,362.239256 136.844267,362.239256 C137.121888,362.239256 137.332952,362.31719 137.477467,362.47306 C137.621982,362.62893 137.694238,362.841564 137.694238,363.110969 C137.694238,363.384222 137.621031,363.600705 137.474615,363.760423 C137.328199,363.920142 137.118085,364 136.844267,364 C136.570449,364 136.361286,363.921104 136.216771,363.76331 C136.072256,363.605516 136,363.388071 136,363.110969 Z M140.751854,363.832585 L139.411295,363.832585 L139.411295,357.447723 L140.751854,357.447723 L140.751854,363.832585 Z M139.331432,355.756254 C139.331432,355.51379 139.397033,355.327133 139.528237,355.19628 C139.659442,355.065426 139.846738,355 140.090131,355 C140.325919,355 140.509412,355.065426 140.640616,355.19628 C140.77182,355.327133 140.837422,355.51379 140.837422,355.756254 C140.837422,355.987172 140.77182,356.169018 140.640616,356.301796 C140.509412,356.434574 140.325919,356.500962 140.090131,356.500962 C139.846738,356.500962 139.659442,356.434574 139.528237,356.301796 C139.397033,356.169018 139.331432,355.987172 139.331432,355.756254 Z M145.018825,362.851187 C145.345885,362.851187 145.67294,362.799231 146,362.695318 L146,363.717126 C145.851682,363.782553 145.660583,363.837396 145.426697,363.881655 C145.192811,363.925914 144.950372,363.948044 144.699373,363.948044 C143.429163,363.948044 142.794067,363.270693 142.794067,361.915972 L142.794067,358.475305 L141.932687,358.475305 L141.932687,357.87492 L142.856817,357.378448 L143.313177,356.027582 L144.140331,356.027582 L144.140331,357.447723 L145.93725,357.447723 L145.93725,358.475305 L144.140331,358.475305 L144.140331,361.89288 C144.140331,362.220014 144.221144,362.461513 144.382772,362.617383 C144.544401,362.773253 144.756416,362.851187 145.018825,362.851187 Z" id=".it" fill="#F7F9FB"></path>
            <path d="M27,221.125552 C27,220.84921 27.0653221,220.637225 27.1959681,220.48959 C27.3266142,220.341955 27.5157043,220.268139 27.7632443,220.268139 C28.0142222,220.268139 28.2050314,220.344794 28.3356774,220.498107 C28.4663235,220.65142 28.5316456,220.860566 28.5316456,221.125552 C28.5316456,221.394323 28.465464,221.607255 28.3330989,221.764353 C28.2007338,221.921452 28.0107842,222 27.7632443,222 C27.5157043,222 27.3266142,221.922398 27.1959681,221.767192 C27.0653221,221.611987 27,221.398109 27,221.125552 Z M35.1017346,221.835331 L33.8846695,221.835331 L33.8846695,217.974132 C33.8846695,217.489587 33.7961409,217.128077 33.6190811,216.88959 C33.4420213,216.651103 33.1609646,216.531861 32.7759025,216.531861 C32.2636324,216.531861 31.8888901,216.698421 31.6516643,217.031546 C31.4144386,217.36467 31.2958275,217.923024 31.2958275,218.706625 L31.2958275,221.835331 L30.0839194,221.835331 L30.0839194,215.555205 L31.0328176,215.555205 L31.2030005,216.378549 L31.2648851,216.378549 C31.4367879,216.079494 31.6808861,215.848581 31.9971871,215.685804 C32.3134881,215.523028 32.6641644,215.44164 33.0492264,215.44164 C34.4175721,215.44164 35.1017346,216.208194 35.1017346,217.741325 L35.1017346,221.835331 Z M38,221.835331 L36.7880919,221.835331 L36.7880919,213 L38,213 L38,221.835331 Z" id=".nl" fill="#F7F9FB"></path>
            <path d="M69,393.2 C69,392.947185 69.0656559,392.753247 69.1969697,392.618182 C69.3282835,392.483116 69.5183401,392.415584 69.7671451,392.415584 C70.0194058,392.415584 70.2111902,392.485714 70.342504,392.625974 C70.4738178,392.766234 70.5394737,392.957575 70.5394737,393.2 C70.5394737,393.445889 70.4729539,393.640692 70.3399123,393.784416 C70.2068707,393.928139 70.0159502,394 69.7671451,394 C69.5183401,394 69.3282835,393.929005 69.1969697,393.787013 C69.0656559,393.645021 69,393.449352 69,393.2 Z M75.9509569,392.212987 C75.9509569,392.774029 75.7470781,393.204328 75.3393142,393.503896 C74.9315503,393.803465 74.3475583,393.953247 73.5873206,393.953247 C72.8236272,393.953247 72.2102628,393.837231 71.7472089,393.605195 L71.7472089,392.550649 C72.421056,392.862339 73.0482427,393.018182 73.6287879,393.018182 C74.3786587,393.018182 74.7535885,392.791344 74.7535885,392.337662 C74.7535885,392.192207 74.7121216,392.070996 74.6291866,391.974026 C74.5462516,391.877056 74.4097564,391.776624 74.219697,391.672727 C74.0296375,391.568831 73.7652861,391.451083 73.4266348,391.319481 C72.7666102,391.063202 72.3199772,390.806928 72.0867225,390.550649 C71.8534677,390.294371 71.7368421,389.961907 71.7368421,389.553247 C71.7368421,389.061469 71.9346737,388.679655 72.3303429,388.407792 C72.7260121,388.135929 73.2642178,388 73.9449761,388 C74.6188231,388 75.2563766,388.136795 75.8576555,388.41039 L75.4637161,389.32987 C74.8451591,389.073592 74.3250951,388.945455 73.9035088,388.945455 C73.2607623,388.945455 72.9393939,389.129002 72.9393939,389.496104 C72.9393939,389.676191 73.0231916,389.828571 73.1907895,389.953247 C73.3583873,390.077923 73.7238143,390.24935 74.2870813,390.467532 C74.7605021,390.651083 75.1043317,390.819047 75.3185805,390.971429 C75.5328294,391.12381 75.6917858,391.299566 75.7954545,391.498701 C75.8991233,391.697836 75.9509569,391.935929 75.9509569,392.212987 Z M79.7711324,393.953247 C78.8795809,393.953247 78.1824188,393.692643 77.6796252,393.171429 C77.1768316,392.650214 76.9254386,391.932472 76.9254386,391.018182 C76.9254386,390.079649 77.1586899,389.341994 77.6251994,388.805195 C78.0917089,388.268396 78.7327179,388 79.5482456,388 C80.3050277,388 80.902842,388.230301 81.3417065,388.690909 C81.780571,389.151517 82,389.785277 82,390.592208 L82,391.251948 L78.1798246,391.251948 C78.1971027,391.809527 78.3474202,392.238094 78.6307815,392.537662 C78.9141428,392.837231 79.3132616,392.987013 79.8281499,392.987013 C80.1668013,392.987013 80.4821224,392.954979 80.7741228,392.890909 C81.0661232,392.82684 81.3797166,392.720347 81.7149123,392.571429 L81.7149123,393.563636 C81.4177284,393.705628 81.1170935,393.80606 80.8129984,393.864935 C80.5089033,393.92381 80.1616181,393.953247 79.7711324,393.953247 Z M79.5482456,388.924675 C79.1612155,388.924675 78.8510777,389.047618 78.617823,389.293506 C78.3845682,389.539395 78.2454814,389.897833 78.2005582,390.368831 L80.8026316,390.368831 C80.7957203,389.89437 80.6816864,389.535066 80.4605263,389.290909 C80.2393663,389.046752 79.9352757,388.924675 79.5482456,388.924675 Z" id=".se" fill="#F7F9FB"></path>
            <path d="M78,360.333333 C78,360.122654 78.0615948,359.96104 78.1847864,359.848485 C78.3079779,359.73593 78.4862788,359.679654 78.7196943,359.679654 C78.9563518,359.679654 79.1362736,359.738095 79.2594651,359.854978 C79.3826566,359.971862 79.4442515,360.131312 79.4442515,360.333333 C79.4442515,360.538241 79.3818462,360.700577 79.2570337,360.820346 C79.1322212,360.940116 78.9531099,361 78.7196943,361 C78.4862788,361 78.3079779,360.940838 78.1847864,360.822511 C78.0615948,360.704184 78,360.541127 78,360.333333 Z M85.6394581,360.874459 L84.4918374,360.874459 L84.4918374,357.930736 C84.4918374,357.561326 84.4083602,357.285715 84.2414033,357.103896 C84.0744463,356.922077 83.8094264,356.831169 83.4463355,356.831169 C82.963295,356.831169 82.6099351,356.958152 82.3862452,357.212121 C82.1625553,357.466091 82.0507121,357.891772 82.0507121,358.489177 L82.0507121,360.874459 L80.9079542,360.874459 L80.9079542,356.08658 L81.8027093,356.08658 L81.9631817,356.714286 L82.0215353,356.714286 C82.1836294,356.48629 82.4137996,356.310246 82.7120528,356.186147 C83.010306,356.062048 83.3409731,356 83.7040639,356 C84.9943332,356 85.6394581,356.58441 85.6394581,357.753247 L85.6394581,360.874459 Z M92,358.471861 C92,359.253972 91.7746925,359.864356 91.3240709,360.30303 C90.8734492,360.741705 90.2461543,360.961039 89.4421674,360.961039 C88.9396756,360.961039 88.4955444,360.86003 88.1097603,360.658009 C87.7239763,360.455987 87.4273485,360.165947 87.219868,359.787879 C87.0123875,359.409811 86.9086488,358.971142 86.9086488,358.471861 C86.9086488,357.695523 87.1323354,357.089468 87.5797152,356.65368 C88.027095,356.217891 88.6576317,356 89.4713442,356 C90.249396,356 90.8653445,356.222941 91.3192081,356.668831 C91.7730716,357.114721 92,357.715725 92,358.471861 Z M88.0854463,358.471861 C88.0854463,359.577206 88.5441658,360.12987 89.4616186,360.12987 C90.3693457,360.12987 90.8232025,359.577206 90.8232025,358.471861 C90.8232025,357.378061 90.3661039,356.831169 89.451893,356.831169 C88.9720944,356.831169 88.6244077,356.972582 88.4088225,357.255411 C88.1932373,357.538241 88.0854463,357.94372 88.0854463,358.471861 Z" id=".no" fill="#F7F9FB"></path>
            <path d="M257,48.4170347 C257,48.2328066 257.052746,48.0914831 257.158239,47.9930599 C257.263732,47.8946367 257.416418,47.8454259 257.6163,47.8454259 C257.818958,47.8454259 257.973031,47.8965295 258.078525,47.9987382 C258.184018,48.1009469 258.236764,48.2403777 258.236764,48.4170347 C258.236764,48.5962154 258.183324,48.7381698 258.076443,48.8429022 C257.969561,48.9476346 257.816182,49 257.6163,49 C257.416418,49 257.263732,48.9482655 257.158239,48.844795 C257.052746,48.7413244 257,48.5987391 257,48.4170347 Z M263.371208,48.8902208 L262.388459,48.8902208 L262.388459,46.3085174 C262.388459,45.988011 262.321833,45.7488967 262.188578,45.5911672 C262.055324,45.4334377 261.847116,45.3545741 261.56395,45.3545741 C261.186395,45.3545741 260.909479,45.4662449 260.733195,45.6895899 C260.55691,45.9129349 260.468769,46.28454 260.468769,46.8044164 L260.468769,48.8902208 L259.490184,48.8902208 L259.490184,44.70347 L260.256395,44.70347 L260.393813,45.2523659 L260.443783,45.2523659 C260.571486,45.0529958 260.75679,44.8990542 260.999703,44.7905363 C261.242615,44.6820184 261.509814,44.6277603 261.801309,44.6277603 C262.509224,44.6277603 262.978385,44.8473164 263.208804,45.2864353 L263.275431,45.2864353 C263.411462,45.0794942 263.603013,44.9179817 263.850089,44.8018927 C264.097166,44.6858038 264.380328,44.6277603 264.699584,44.6277603 C265.249259,44.6277603 265.649711,44.753942 265.900952,45.0063091 C266.152192,45.2586763 266.277811,45.6435305 266.277811,46.1608833 L266.277811,48.8902208 L265.299227,48.8902208 L265.299227,46.3085174 C265.299227,45.988011 265.231906,45.7488967 265.097264,45.5911672 C264.962621,45.4334377 264.753719,45.3545741 264.470553,45.3545741 C264.090222,45.3545741 263.811918,45.4624595 263.635634,45.6782334 C263.459349,45.8940074 263.371208,46.2252344 263.371208,46.6719243 L263.371208,48.8902208 Z M268.622249,48.8902208 L267.643664,48.8902208 L267.643664,44.70347 L268.622249,44.70347 L268.622249,48.8902208 Z M267.585366,43.5943218 C267.585366,43.4353304 267.633254,43.3129342 267.72903,43.2271293 C267.824807,43.1413245 267.96153,43.0984227 268.139203,43.0984227 C268.311323,43.0984227 268.44527,43.1413245 268.541047,43.2271293 C268.636824,43.3129342 268.684711,43.4353304 268.684711,43.5943218 C268.684711,43.7457421 268.636824,43.8649838 268.541047,43.9520505 C268.44527,44.0391172 268.311323,44.0826498 268.139203,44.0826498 C267.96153,44.0826498 267.824807,44.0391172 267.72903,43.9520505 C267.633254,43.8649838 267.585366,43.7457421 267.585366,43.5943218 Z M271,48.8902208 L270.021416,48.8902208 L270.021416,43 L271,43 L271,48.8902208 Z" id=".mil" fill="#F7F9FB"></path>
            <path d="M143,120.2 C143,119.947185 143.081534,119.753247 143.244604,119.618182 C143.407675,119.483116 143.643694,119.415584 143.952669,119.415584 C144.265936,119.415584 144.504101,119.485714 144.667172,119.625974 C144.830242,119.766234 144.911776,119.957575 144.911776,120.2 C144.911776,120.445889 144.829169,120.640692 144.663953,120.784416 C144.498737,120.928139 144.261645,121 143.952669,121 C143.643694,121 143.407675,120.929005 143.244604,120.787013 C143.081534,120.645021 143,120.449352 143,120.2 Z M151.870125,120.849351 L151.657705,120.096104 L151.580462,120.096104 C151.370187,120.362772 151.070872,120.572294 150.682507,120.724675 C150.294142,120.877057 149.851069,120.953247 149.353275,120.953247 C148.490719,120.953247 147.84703,120.780088 147.422189,120.433766 C146.997347,120.087444 146.78493,119.562774 146.78493,118.85974 L146.78493,115.103896 L148.310488,115.103896 L148.310488,118.646753 C148.310488,119.086582 148.422061,119.416449 148.64521,119.636364 C148.868359,119.856278 149.218097,119.966234 149.694434,119.966234 C150.32955,119.966234 150.796225,119.812989 151.094472,119.506494 C151.392719,119.199998 151.54184,118.686584 151.54184,117.966234 L151.54184,115.103896 L153.060962,115.103896 L153.060962,120.849351 L151.870125,120.849351 Z M160,119.212987 C160,119.774029 159.746816,120.204328 159.240439,120.503896 C158.734063,120.803465 158.00884,120.953247 157.064748,120.953247 C156.116365,120.953247 155.354667,120.837231 154.779629,120.605195 L154.779629,119.550649 C155.616437,119.862339 156.395301,120.018182 157.116244,120.018182 C158.047461,120.018182 158.513063,119.791344 158.513063,119.337662 C158.513063,119.192207 158.461568,119.070996 158.358576,118.974026 C158.255584,118.877056 158.08608,118.776624 157.850057,118.672727 C157.614034,118.568831 157.285752,118.451083 156.865203,118.319481 C156.045559,118.063202 155.490914,117.806928 155.20125,117.550649 C154.911585,117.294371 154.766755,116.961907 154.766755,116.553247 C154.766755,116.061469 155.01243,115.679655 155.503786,115.407792 C155.995143,115.135929 156.663507,115 157.508898,115 C158.345707,115 159.137444,115.136795 159.884135,115.41039 L159.394926,116.32987 C158.626779,116.073592 157.980944,115.945455 157.457402,115.945455 C156.659216,115.945455 156.260129,116.129002 156.260129,116.496104 C156.260129,116.676191 156.364192,116.828571 156.572321,116.953247 C156.78045,117.077923 157.234251,117.24935 157.933737,117.467532 C158.521649,117.651083 158.948629,117.819047 159.214691,117.971429 C159.480754,118.12381 159.678152,118.299566 159.806891,118.498701 C159.935631,118.697836 160,118.935929 160,119.212987 Z" id=".us-copy" fill="#F7F9FB"></path>
            <path d="M159,415.348265 C159,414.826286 159.132824,414.425869 159.398475,414.147003 C159.664126,413.868137 160.048615,413.728707 160.551954,413.728707 C161.062284,413.728707 161.450269,413.8735 161.71592,414.163091 C161.981571,414.452683 162.114395,414.847737 162.114395,415.348265 C162.114395,415.855944 161.979823,416.258148 161.710677,416.55489 C161.44153,416.851631 161.055293,417 160.551954,417 C160.048615,417 159.664126,416.853419 159.398475,416.560252 C159.132824,416.267086 159,415.863094 159,415.348265 Z M174.792183,416.688959 L174.446139,415.133754 L174.320305,415.133754 C173.977755,415.684335 173.490153,416.116928 172.857483,416.431546 C172.224814,416.746164 171.503023,416.90347 170.692088,416.90347 C169.286933,416.90347 168.238326,416.545955 167.546235,415.830915 C166.854143,415.115874 166.508103,414.032605 166.508103,412.581073 L166.508103,404.826498 L168.993327,404.826498 L168.993327,412.141325 C168.993327,413.049426 169.175086,413.730492 169.538608,414.184543 C169.902131,414.638593 170.471874,414.865615 171.247855,414.865615 C172.282496,414.865615 173.042737,414.549215 173.528599,413.916404 C174.014461,413.283593 174.257388,412.223562 174.257388,410.736278 L174.257388,404.826498 L176.732126,404.826498 L176.732126,416.688959 L174.792183,416.688959 Z M183.967588,410.425237 L185.36225,408.644795 L188.864633,404.826498 L191.706387,404.826498 L187.040038,409.921136 L192,416.688959 L189.105815,416.688959 L185.383222,411.487066 L184.030505,412.623975 L184.030505,416.688959 L181.587226,416.688959 L181.587226,400 L184.030505,400 L184.030505,408.140694 L183.904671,410.425237 L183.967588,410.425237 Z" id=".uk-copy" fill="#F7F9FB"></path>
        </g>
    </g>
</svg>